<svg width="1520" height="92" viewBox="0 0 1520 92" fill="none" xmlns="http://www.w3.org/2000/svg">
<path d="M1519.5 46C1519.5 47.2959 1518.4 48.7358 1515.82 50.2737C1513.28 51.7883 1509.47 53.298 1504.42 54.7911C1494.33 57.7751 1479.43 60.6596 1460.2 63.4103C1421.77 68.9108 1366.13 73.8659 1297.37 78.0278C1159.85 86.3514 969.861 91.5 760 91.5C550.139 91.5 360.149 86.3514 222.629 78.0278C153.867 73.8659 98.2333 68.9108 59.7954 63.4103C40.573 60.6596 25.6707 57.7751 15.5823 54.7911C10.5344 53.298 6.72106 51.7883 4.17978 50.2737C1.59936 48.7358 0.5 47.2959 0.5 46C0.5 44.7041 1.59936 43.2642 4.17978 41.7263C6.72106 40.2117 10.5344 38.702 15.5823 37.2089C25.6707 34.2249 40.573 31.3404 59.7954 28.5897C98.2333 23.0892 153.867 18.1341 222.629 13.9722C360.149 5.64859 550.139 0.5 760 0.5C969.861 0.5 1159.85 5.64859 1297.37 13.9722C1366.13 18.1341 1421.77 23.0892 1460.2 28.5897C1479.43 31.3404 1494.33 34.2249 1504.42 37.2089C1509.47 38.702 1513.28 40.2117 1515.82 41.7263C1518.4 43.2642 1519.5 44.7041 1519.5 46Z" fill="#DCC152" fill-opacity="0.05" stroke="url(#paint0_linear_103_522)"/>
<path d="M1430.62 42.4496C1432.15 43.0661 1433.29 43.6881 1434.02 44.3151L1433.69 44.6946C1434.29 45.2085 1434.5 45.644 1434.5 46C1434.5 46.3561 1434.29 46.7918 1433.69 47.3058L1434.02 47.6854C1433.29 48.3123 1432.15 48.9343 1430.62 49.5508L1430.43 49.0869C1429.37 49.5171 1428.1 49.947 1426.63 50.3759L1426.77 50.8559C1425.63 51.1892 1424.37 51.5207 1423 51.8504L1422.88 51.3642C1421.68 51.6527 1420.39 51.9399 1419.02 52.2259L1419.12 52.7154C1417.87 52.9757 1416.54 53.2348 1415.15 53.4925L1415.06 53.0009C1413.83 53.2295 1412.53 53.4571 1411.19 53.6838L1411.27 54.1768C1410.01 54.3899 1408.69 54.6021 1407.33 54.8133L1407.25 54.3192C1405.96 54.5196 1404.63 54.7191 1403.25 54.9178L1403.32 55.4127C1402.07 55.5929 1400.79 55.7723 1399.47 55.951L1399.4 55.4556C1398.09 55.6341 1396.74 55.812 1395.35 55.989L1395.41 56.485C1394.14 56.648 1392.84 56.8103 1391.5 56.972L1391.44 56.4756C1390.17 56.6303 1388.87 56.7844 1387.54 56.9379L1387.6 57.4345C1386.27 57.5881 1384.92 57.7411 1383.54 57.8935L1383.48 57.3965C1382.19 57.5389 1380.88 57.6808 1379.55 57.8221L1379.6 58.3193C1378.32 58.4548 1377.02 58.5897 1375.7 58.7241L1375.65 58.2266C1374.33 58.361 1372.99 58.4948 1371.64 58.6281L1371.69 59.1257C1370.35 59.2565 1369 59.3868 1367.63 59.5165L1367.58 59.0188C1366.31 59.1389 1365.03 59.2585 1363.73 59.3778L1363.77 59.8757C1362.47 59.995 1361.15 60.1138 1359.82 60.2322L1359.77 59.7342C1358.44 59.8525 1357.09 59.9705 1355.72 60.0879L1355.76 60.5861C1354.45 60.6992 1353.12 60.8118 1351.77 60.9241L1351.73 60.4258C1350.45 60.5328 1349.15 60.6394 1347.85 60.7457L1347.89 61.244C1346.58 61.3503 1345.25 61.4562 1343.92 61.5617L1343.88 61.0633C1342.54 61.1687 1341.19 61.2738 1339.83 61.3785L1339.87 61.877C1338.55 61.9788 1337.21 62.0803 1335.86 62.1814L1335.82 61.6828C1334.54 61.779 1333.24 61.8749 1331.93 61.9704L1331.97 62.4691C1330.66 62.5647 1329.34 62.6599 1328.02 62.7547L1327.98 62.256C1326.65 62.3508 1325.31 62.4453 1323.96 62.5394L1324 63.0382C1322.64 63.1324 1321.28 63.2261 1319.91 63.3195L1319.88 62.8207C1318.59 62.9082 1317.3 62.9953 1315.99 63.0821L1316.02 63.581C1314.72 63.6676 1313.42 63.7538 1312.1 63.8398L1312.06 63.3408C1310.75 63.4267 1309.42 63.5123 1308.08 63.5976L1308.11 64.0966C1306.78 64.1818 1305.43 64.2668 1304.07 64.3514L1304.04 63.8524C1302.71 63.9358 1301.36 64.019 1300 64.1018L1300.04 64.6009C1298.74 64.6798 1297.45 64.7584 1296.14 64.8367L1296.11 64.3376C1294.8 64.4158 1293.49 64.4938 1292.17 64.5715L1292.2 65.0707C1290.88 65.1484 1289.55 65.2258 1288.21 65.3029L1288.18 64.8038C1286.84 64.8809 1285.5 64.9577 1284.14 65.0342L1284.17 65.5334C1282.83 65.6091 1281.48 65.6845 1280.13 65.7596L1280.1 65.2604C1278.81 65.3321 1277.51 65.4036 1276.2 65.4747L1276.23 65.974C1274.92 66.0452 1273.61 66.1161 1272.29 66.1867L1272.26 65.6874C1270.94 65.7581 1269.61 65.8284 1268.28 65.8985L1268.3 66.3978C1266.97 66.4679 1265.63 66.5376 1264.28 66.6072L1264.25 66.1078C1262.91 66.1773 1261.55 66.2466 1260.19 66.3155L1260.22 66.8149C1258.92 66.8808 1257.61 66.9465 1256.29 67.0119L1256.27 66.5126C1254.96 66.5775 1253.65 66.6422 1252.34 66.7066L1252.36 67.206C1251.05 67.2705 1249.72 67.3346 1248.4 67.3986L1248.37 66.8991C1247.04 66.9631 1245.71 67.0267 1244.37 67.0901L1244.39 67.5895C1243.05 67.6529 1241.71 67.7161 1240.36 67.7789L1240.33 67.2795C1239 67.3416 1237.66 67.4035 1236.31 67.4651L1236.33 67.9646C1235.03 68.0241 1233.73 68.0833 1232.42 68.1422L1232.39 67.6427C1231.08 67.7017 1229.77 67.7604 1228.45 67.8189L1228.47 68.3184C1227.15 68.3769 1225.82 68.4351 1224.49 68.4931L1224.47 67.9936C1223.14 68.0516 1221.8 68.1093 1220.46 68.1668L1220.48 68.6663C1219.14 68.7238 1217.8 68.7811 1216.45 68.8381L1216.42 68.3385C1215.09 68.3946 1213.76 68.4505 1212.42 68.5061L1212.44 69.0057C1211.14 69.0598 1209.83 69.1136 1208.52 69.1673L1208.5 68.6677C1207.18 68.7213 1205.87 68.7747 1204.54 68.8279L1204.56 69.3275C1203.24 69.3806 1201.92 69.4335 1200.59 69.4862L1200.57 68.9866C1199.24 69.0393 1197.9 69.0918 1196.56 69.144L1196.58 69.6436C1195.24 69.6959 1193.9 69.7478 1192.55 69.7996L1192.53 69.3C1191.19 69.3513 1189.85 69.4024 1188.51 69.4532L1188.52 69.9528C1187.22 70.0021 1185.91 70.0511 1184.6 70.1L1184.58 69.6003C1183.27 69.6491 1181.95 69.6977 1180.63 69.7461L1180.65 70.2458C1179.33 70.2941 1178.01 70.3423 1176.68 70.3902L1176.66 69.8905L1174.87 69.9547L1172.66 70.0337L1172.68 70.5333C1171.35 70.5808 1170 70.6281 1168.66 70.6751L1168.64 70.1754C1167.3 70.2224 1165.95 70.2692 1164.6 70.3158L1164.62 70.8155C1163.3 70.8607 1161.99 70.9057 1160.67 70.9505L1160.65 70.4507C1159.34 70.4952 1158.03 70.5394 1156.71 70.5835L1156.73 71.0832C1155.41 71.1272 1154.09 71.171 1152.76 71.2146L1152.75 70.7149C1151.42 70.7585 1150.09 70.8019 1148.76 70.845L1148.78 71.3448C1147.45 71.388 1146.11 71.4309 1144.77 71.4736L1144.76 70.9739C1143.42 71.0166 1142.08 71.0591 1140.73 71.1014L1140.74 71.6012C1139.41 71.6433 1138.07 71.6851 1136.72 71.7267L1136.7 71.227C1135.4 71.2674 1134.09 71.3077 1132.77 71.3477L1132.79 71.8475C1131.47 71.8875 1130.16 71.9274 1128.84 71.967L1128.82 71.4673C1127.5 71.5069 1126.18 71.5463 1124.85 71.5855L1124.87 72.0853C1123.54 72.1245 1122.21 72.1636 1120.88 72.2024L1120.86 71.7026C1119.53 71.7414 1118.19 71.78 1116.85 71.8184L1116.87 72.3182C1115.53 72.3566 1114.18 72.3947 1112.84 72.4327L1112.82 71.9329C1111.49 71.9705 1110.16 72.0079 1108.82 72.0451L1108.83 72.5449C1107.52 72.5813 1106.21 72.6175 1104.89 72.6535L1104.88 72.1537C1103.56 72.1897 1102.24 72.2254 1100.92 72.261L1100.94 72.7608C1099.61 72.7964 1098.29 72.8318 1096.96 72.867L1096.95 72.3672C1095.62 72.4024 1094.29 72.4373 1092.96 72.4721L1092.97 72.9719C1091.64 73.0067 1090.3 73.0413 1088.97 73.0757L1088.95 72.5758C1087.61 72.6102 1086.27 72.6444 1084.93 72.6783L1084.94 73.1782C1083.61 73.212 1082.27 73.2455 1080.93 73.2789L1080.91 72.779C1079.6 72.8116 1078.29 72.844 1076.97 72.8762L1076.99 73.3761C1075.67 73.4083 1074.35 73.4403 1073.03 73.4721L1073.02 72.9723C1071.7 73.0041 1070.37 73.0357 1069.05 73.0671L1069.06 73.567C1067.73 73.5984 1066.4 73.6297 1065.07 73.6607L1065.06 73.1608C1063.73 73.1919 1062.39 73.2227 1061.06 73.2533L1061.07 73.7532C1059.73 73.7839 1058.39 73.8143 1057.05 73.8445L1057.04 73.3447C1055.7 73.3749 1054.35 73.405 1053.01 73.4348L1053.02 73.9347C1051.7 73.9638 1050.39 73.9927 1049.07 74.0215L1049.06 73.5216C1047.74 73.5503 1046.43 73.5788 1045.1 73.6071L1045.12 74.107C1043.8 74.1352 1042.47 74.1634 1041.15 74.1913L1041.14 73.6914C1039.81 73.7193 1038.49 73.747 1037.16 73.7745L1037.17 74.2744C1035.84 74.302 1034.51 74.3293 1033.17 74.3564L1033.16 73.8566C1031.83 73.8837 1030.49 73.9106 1029.15 73.9374L1029.16 74.4373C1027.82 74.4641 1026.48 74.4906 1025.14 74.517L1025.13 74.0171L1022.41 74.0702L1021.13 74.0949L1021.14 74.5948C1019.83 74.6201 1018.51 74.6453 1017.19 74.6703L1017.18 74.1703C1015.87 74.1953 1014.55 74.2201 1013.22 74.2447L1013.23 74.7446C1011.91 74.7692 1010.58 74.7936 1009.26 74.8179L1009.25 74.318C1007.92 74.3422 1006.59 74.3662 1005.26 74.3901L1005.27 74.89C1003.94 74.9139 1002.61 74.9375 1001.27 74.961L1001.26 74.4611C999.927 74.4846 998.59 74.5078 997.25 74.5309L997.259 75.0309C995.92 75.054 994.578 75.0769 993.235 75.0996L993.227 74.5997C991.905 74.622 990.582 74.6442 989.256 74.6661L989.264 75.1661C987.948 75.1879 986.629 75.2096 985.308 75.231L985.3 74.7311C983.98 74.7526 982.657 74.7738 981.333 74.795L981.341 75.2949C980.017 75.316 978.691 75.3369 977.363 75.3576L977.355 74.8577C976.027 74.8784 974.697 74.899 973.365 74.9193L973.373 75.4193C972.041 75.4396 970.707 75.4598 969.372 75.4798L969.365 74.9799C968.029 74.9999 966.692 75.0197 965.353 75.0393L965.36 75.5392C964.021 75.5589 962.68 75.5783 961.337 75.5975L961.33 75.0976C960.011 75.1165 958.691 75.1352 957.368 75.1538L957.375 75.6537C956.057 75.6722 954.737 75.6905 953.416 75.7086L953.409 75.2087C952.087 75.2268 950.764 75.2447 949.439 75.2625L949.446 75.7624C948.121 75.7802 946.794 75.7978 945.466 75.8152L945.459 75.3152L943.861 75.336L941.469 75.3668L941.476 75.8668C940.144 75.8838 938.811 75.9007 937.476 75.9173L937.469 75.4174L936.068 75.4348L933.46 75.4668L933.466 75.9668C932.127 75.9831 930.787 75.9992 929.446 76.0151L929.44 75.5152C928.119 75.5308 926.797 75.5463 925.474 75.5617L925.479 76.0616C924.16 76.0769 922.84 76.092 921.518 76.1069L921.512 75.6069C920.19 75.6218 918.867 75.6366 917.542 75.6511L917.547 76.1511C916.222 76.1656 914.896 76.18 913.567 76.1942L913.562 75.6942C912.234 75.7084 910.904 75.7224 909.573 75.7362L909.579 76.2362C908.247 76.25 906.915 76.2637 905.581 76.2772L905.576 75.7772C904.242 75.7907 902.906 75.8039 901.569 75.8171L901.574 76.317C900.237 76.3301 898.899 76.3431 897.559 76.3558L897.554 75.8558C896.229 75.8684 894.902 75.8808 893.574 75.8931L893.578 76.3931C892.259 76.4052 890.938 76.4172 889.616 76.429L889.612 75.929C888.29 75.9409 886.967 75.9525 885.642 75.9639L885.646 76.4639C884.321 76.4754 882.995 76.4866 881.668 76.4977L881.664 75.9978C880.336 76.0089 879.007 76.0198 877.677 76.0305L877.681 76.5305C876.351 76.5412 875.019 76.5518 873.686 76.5622L873.683 76.0622C872.35 76.0726 871.016 76.0828 869.68 76.0928L869.684 76.5928C868.348 76.6028 867.012 76.6127 865.673 76.6223L865.67 76.1223C864.338 76.132 863.004 76.1414 861.67 76.1507L861.673 76.6506C860.354 76.6598 859.033 76.6688 857.712 76.6776L857.708 76.1776C856.387 76.1864 855.064 76.195 853.739 76.2035L853.743 76.7035C852.418 76.7119 851.093 76.7202 849.766 76.7283L849.763 76.2283C848.436 76.2364 847.109 76.2443 845.78 76.252L845.782 76.752C844.453 76.7598 843.123 76.7673 841.791 76.7747L841.789 76.2747C840.457 76.2821 839.125 76.2893 837.791 76.2964L837.793 76.7963C836.459 76.8034 835.124 76.8102 833.788 76.8169L833.786 76.3169C832.449 76.3236 831.112 76.3301 829.773 76.3364L829.776 76.8364C828.453 76.8426 827.129 76.8487 825.804 76.8546L825.802 76.3546C824.48 76.3604 823.158 76.3661 821.834 76.3717L821.837 76.8717C820.513 76.8772 819.188 76.8825 817.862 76.8877L817.86 76.3877C816.535 76.3929 815.208 76.3979 813.88 76.4027L813.882 76.9027C812.554 76.9075 811.225 76.9121 809.895 76.9166L809.893 76.4166C808.563 76.4211 807.232 76.4253 805.9 76.4295L805.901 76.9295C804.569 76.9336 803.236 76.9375 801.901 76.9412L801.9 76.4412C800.565 76.445 799.23 76.4486 797.894 76.452L797.895 76.952C796.562 76.9554 795.229 76.9586 793.894 76.9616L793.893 76.4616L791.809 76.4662L789.927 76.4701L789.928 76.9701C788.605 76.9727 787.281 76.9752 785.956 76.9775L785.955 76.4775L784.256 76.4804L781.978 76.4839L781.979 76.9839C780.652 76.9858 779.324 76.9876 777.995 76.9892L777.995 76.4892C776.666 76.4908 775.336 76.4922 774.006 76.4935L774.006 76.9935C772.676 76.9947 771.344 76.9958 770.011 76.9967L770.011 76.4967L767.688 76.498L766.011 76.4988L766.011 76.9988C764.677 76.9993 763.341 76.9997 762.005 76.9999L762.005 76.4999L760 76.5L757.994 76.4999L757.994 76.9999C756.658 76.9997 755.322 76.9993 753.988 76.9988L753.988 76.4988C752.654 76.4983 751.32 76.4975 749.988 76.4967L749.988 76.9967C748.655 76.9958 747.323 76.9947 745.993 76.9935L745.993 76.4935C744.663 76.4922 743.333 76.4908 742.004 76.4892L742.004 76.9892C740.675 76.9876 739.347 76.9858 738.02 76.9839L738.021 76.4839L736.554 76.4816L734.044 76.4775L734.043 76.9775C732.718 76.9752 731.394 76.9727 730.071 76.9701L730.072 76.4701C728.749 76.4674 727.427 76.4646 726.106 76.4616L726.105 76.9616C724.771 76.9586 723.437 76.9554 722.104 76.952L722.105 76.452C720.769 76.4486 719.434 76.445 718.099 76.4412L718.098 76.9412C716.763 76.9375 715.43 76.9336 714.098 76.9295L714.099 76.4295C712.767 76.4253 711.436 76.4211 710.106 76.4166L710.104 76.9166C708.774 76.9121 707.445 76.9075 706.117 76.9027L706.119 76.4027C704.791 76.3979 703.464 76.3929 702.139 76.3877L702.137 76.8877C700.811 76.8825 699.486 76.8772 698.163 76.8717L698.165 76.3717C696.841 76.3661 695.519 76.3604 694.197 76.3546L694.195 76.8546C692.87 76.8487 691.546 76.8426 690.223 76.8364L690.226 76.3364C688.887 76.3301 687.55 76.3236 686.214 76.3169L686.211 76.8169C684.875 76.8102 683.54 76.8034 682.206 76.7963L682.208 76.2964C680.875 76.2893 679.542 76.2821 678.21 76.2747L678.208 76.7747C676.876 76.7673 675.546 76.7598 674.217 76.752L674.22 76.252C672.891 76.2443 671.563 76.2364 670.236 76.2283L670.233 76.7283C668.906 76.7202 667.581 76.7119 666.256 76.7034L666.26 76.2035C664.935 76.195 663.613 76.1864 662.291 76.1776L662.287 76.6776C660.966 76.6688 659.645 76.6598 658.326 76.6506L658.329 76.1507C656.995 76.1414 655.661 76.132 654.329 76.1223L654.326 76.6223C652.988 76.6127 651.651 76.6028 650.315 76.5928L650.319 76.0928L648.781 76.0812C647.959 76.0749 647.138 76.0686 646.317 76.0622L646.313 76.5622C644.98 76.5518 643.648 76.5412 642.318 76.5305L642.322 76.0305C640.992 76.0198 639.663 76.0089 638.336 75.9978L638.331 76.4977C637.004 76.4866 635.678 76.4754 634.353 76.4639L634.357 75.9639C633.033 75.9525 631.709 75.9408 630.387 75.929L630.383 76.429C629.061 76.4172 627.74 76.4052 626.421 76.3931L626.425 75.8931C625.097 75.8808 623.771 75.8684 622.445 75.8558L622.441 76.3558C621.101 76.343 619.762 76.3301 618.425 76.317L618.43 75.817C617.093 75.8039 615.758 75.7906 614.423 75.7772L614.418 76.2772C613.084 76.2637 611.752 76.25 610.421 76.2362L610.426 75.7362C609.095 75.7224 607.765 75.7084 606.437 75.6942L606.432 76.1942C605.104 76.18 603.777 76.1656 602.452 76.1511L602.458 75.6511C601.133 75.6365 599.809 75.6218 598.487 75.6069L598.481 76.1069C597.159 76.092 595.839 76.0769 594.52 76.0616L594.526 75.5616C593.202 75.5463 591.88 75.5308 590.559 75.5151L590.553 76.0151C589.212 75.9992 587.872 75.9831 586.534 75.9668L586.54 75.4668C585.201 75.4505 583.865 75.434 582.53 75.4174L582.524 75.9173C581.189 75.9007 579.855 75.8838 578.524 75.8668L578.53 75.3668C577.198 75.3498 575.868 75.3326 574.54 75.3152L574.534 75.8152C573.205 75.7978 571.879 75.7802 570.554 75.7624L570.56 75.2625C569.235 75.2447 567.912 75.2268 566.591 75.2086L566.584 75.7086C565.262 75.6905 563.942 75.6722 562.624 75.6537L562.631 75.1537C561.309 75.1352 559.988 75.1165 558.669 75.0976L558.662 75.5975C557.319 75.5783 555.978 75.5588 554.639 75.5392L554.646 75.0393C553.307 75.0197 551.97 74.9999 550.635 74.9799L550.627 75.4798C549.292 75.4598 547.958 75.4396 546.626 75.4193L546.634 74.9193C545.302 74.899 543.972 74.8784 542.644 74.8577L542.637 75.3576C541.309 75.3369 539.982 75.316 538.658 75.2949L538.666 74.7949C537.342 74.7738 536.019 74.7526 534.699 74.7311L534.691 75.231C533.37 75.2095 532.051 75.1879 530.735 75.1661L530.743 74.6661L529.302 74.6422C528.458 74.6281 527.615 74.6139 526.773 74.5996L526.764 75.0996C525.421 75.0769 524.08 75.0539 522.74 75.0308L522.749 74.5309C521.41 74.5078 520.072 74.4845 518.737 74.4611L518.728 74.961C517.393 74.9375 516.06 74.9138 514.729 74.89L514.738 74.3901C513.407 74.3662 512.078 74.3422 510.751 74.3179L510.742 74.8179C509.415 74.7936 508.09 74.7692 506.767 74.7446L506.776 74.2447C505.453 74.2201 504.133 74.1953 502.814 74.1703L502.805 74.6702C501.486 74.6453 500.169 74.6201 498.855 74.5947L498.865 74.0948C497.531 74.0691 496.199 74.0432 494.869 74.0171L494.859 74.517C493.516 74.4906 492.175 74.4641 490.837 74.4373L490.847 73.9374C489.508 73.9106 488.172 73.8837 486.838 73.8565L486.828 74.3564C485.494 74.3293 484.162 74.3019 482.833 74.2744L482.843 73.7745C481.514 73.747 480.187 73.7193 478.862 73.6914L478.851 74.1912C477.526 74.1633 476.204 74.1352 474.884 74.1069L474.894 73.607C473.574 73.5788 472.256 73.5503 470.941 73.5216L470.93 74.0215C469.611 73.9927 468.294 73.9638 466.98 73.9347L466.991 73.4348C465.645 73.4049 464.301 73.3749 462.959 73.3446L462.948 73.8445C461.606 73.8143 460.267 73.7838 458.931 73.7532L458.942 73.2533C457.605 73.2227 456.271 73.1918 454.94 73.1608L454.928 73.6607C453.597 73.6296 452.268 73.5984 450.941 73.567L450.953 73.0671C449.627 73.0357 448.303 73.0041 446.982 72.9723L446.97 73.4721C445.649 73.4403 444.33 73.4083 443.014 73.3761L443.026 72.8762C441.71 72.844 440.397 72.8116 439.086 72.779L439.073 73.2789C437.732 73.2455 436.393 73.2119 435.057 73.1782L435.07 72.6783C434.453 72.6627 433.836 72.6471 433.22 72.6314C432.495 72.6129 431.77 72.5944 431.046 72.5758L431.033 73.0757C429.695 73.0413 428.359 73.0067 427.026 72.9719L427.039 72.4721C425.706 72.4373 424.376 72.4023 423.049 72.3671L423.036 72.867C421.709 72.8318 420.384 72.7964 419.063 72.7608L419.076 72.261C417.755 72.2254 416.437 72.1896 415.121 72.1536L415.107 72.6535C413.792 72.6175 412.479 72.5813 411.169 72.5449L411.183 72.0451C409.844 72.0079 408.507 71.9705 407.174 71.9329L407.16 72.4327C405.814 72.3947 404.472 72.3565 403.132 72.3181L403.147 71.8183C401.807 71.78 400.471 71.7414 399.138 71.7026L399.124 72.2023C397.79 72.1635 396.46 72.1245 395.134 72.0853L395.148 71.5855C393.822 71.5463 392.498 71.5069 391.178 71.4672L391.163 71.967C389.842 71.9274 388.525 71.8875 387.211 71.8475L387.227 71.3477C385.913 71.3076 384.602 71.2674 383.295 71.2269L383.279 71.7267C381.934 71.6851 380.592 71.6432 379.254 71.6012L379.27 71.1014C377.924 71.0591 376.582 71.0166 375.243 70.9739L375.227 71.4736C373.888 71.4309 372.552 71.3879 371.221 71.3448L371.237 70.845C369.905 70.8018 368.577 70.7585 367.252 70.7149L367.236 71.2146C365.911 71.171 364.59 71.1272 363.272 71.0831L363.289 70.5834C361.972 70.5394 360.658 70.4952 359.348 70.4507L359.331 70.9504C358.011 70.9057 356.695 70.8607 355.383 70.8155L355.4 70.3158C354.048 70.2692 352.7 70.2224 351.356 70.1754L351.339 70.6751C349.994 70.628 348.654 70.5808 347.318 70.5333L347.336 70.0336C345.999 69.9861 344.667 69.9384 343.339 69.8905L343.321 70.3902C341.993 70.3423 340.668 70.2941 339.348 70.2457L339.366 69.7461C338.046 69.6977 336.73 69.6491 335.418 69.6003L335.399 70.0999C334.087 70.0511 332.779 70.0021 331.475 69.9528L331.494 69.4532C330.148 69.4023 328.807 69.3512 327.47 69.2999L327.45 69.7996C326.102 69.7478 324.758 69.6958 323.418 69.6436L323.438 69.144C322.098 69.0918 320.763 69.0393 319.432 68.9866L319.413 69.4862C318.082 69.4335 316.756 69.3806 315.434 69.3274L315.454 68.8278C314.133 68.7747 312.816 68.7213 311.504 68.6676L311.483 69.1672C310.171 69.1136 308.863 69.0597 307.56 69.0057L307.581 68.5061C306.241 68.4505 304.905 68.3946 303.575 68.3385L303.554 68.838C302.203 68.781 300.856 68.7238 299.515 68.6663L299.537 68.1668C298.196 68.1093 296.86 68.0515 295.529 67.9935L295.507 68.4931C294.176 68.4351 292.85 68.3769 291.53 68.3184L291.552 67.8189C290.231 67.7604 288.916 67.7017 287.606 67.6427L287.583 68.1422C286.273 68.0832 284.968 68.024 283.668 67.9646L283.691 67.4651C282.344 67.4035 281.003 67.3416 279.667 67.2794L279.643 67.7789C278.292 67.716 276.946 67.6529 275.606 67.5895L275.63 67.0901C274.29 67.0267 272.956 66.963 271.628 66.8991L271.604 67.3985C270.276 67.3346 268.954 67.2704 267.637 67.206L267.662 66.7066C266.346 66.6422 265.035 66.5775 263.731 66.5125L263.706 67.0119C262.392 66.9465 261.084 66.8808 259.782 66.8148L259.807 66.3155C258.446 66.2465 257.092 66.1773 255.744 66.1078L255.718 66.6071C254.371 66.5376 253.03 66.4678 251.695 66.3977L251.722 65.8984C250.387 65.8284 249.06 65.758 247.739 65.6874L247.713 66.1867C246.392 66.116 245.078 66.0451 243.771 65.974L243.798 65.4747C242.491 65.4035 241.191 65.3321 239.898 65.2604L239.87 65.7596C238.516 65.6845 237.169 65.6091 235.829 65.5333L235.857 65.0341C234.504 64.9576 233.158 64.8808 231.821 64.8037L231.792 65.3029C230.454 65.2258 229.124 65.1484 227.802 65.0706L227.831 64.5715C226.509 64.4938 225.195 64.4158 223.889 64.3375L223.859 64.8366C222.553 64.7583 221.254 64.6797 219.964 64.6008L219.994 64.1017C218.64 64.0189 217.294 63.9358 215.957 63.8523L215.926 64.3513C214.57 64.2667 213.224 64.1818 211.887 64.0965L211.919 63.5975C210.582 63.5123 209.254 63.4267 207.935 63.3408L207.903 63.8397C206.584 63.7538 205.275 63.6675 203.975 63.581L204.008 63.0821C202.704 62.9953 201.409 62.9081 200.124 62.8206L200.09 63.3195C198.717 63.2261 197.355 63.1323 196.004 63.0382L196.039 62.5394C194.688 62.4452 193.348 62.3508 192.019 62.2559L191.983 62.7547C190.654 62.6598 189.336 62.5646 188.029 62.469L188.065 61.9704C186.758 61.8748 185.462 61.779 184.177 61.6827L184.14 62.1813C182.791 62.0802 181.453 61.9788 180.128 61.8769L180.167 61.3784C178.805 61.2737 177.456 61.1687 176.121 61.0632L176.081 61.5616C174.746 61.4561 173.423 61.3503 172.114 61.244L172.154 60.7456C170.845 60.6394 169.549 60.5327 168.267 60.4257L168.225 60.924C166.881 60.8117 165.55 60.6991 164.235 60.586L164.278 60.0878C162.912 59.9704 161.561 59.8525 160.227 59.7341L160.183 60.2322C158.848 60.1138 157.53 59.9949 156.227 59.8756L156.273 59.3777C154.971 59.2585 153.686 59.1388 152.417 59.0187L152.37 59.5165C150.999 59.3867 149.647 59.2564 148.314 59.1257L148.363 58.6281C147.004 58.4947 145.666 58.3609 144.347 58.2266L144.297 58.724C142.978 58.5896 141.679 58.4547 140.401 58.3192L140.453 57.822C139.119 57.6807 137.807 57.5388 136.518 57.3964L136.463 57.8934C135.084 57.741 133.73 57.588 132.402 57.4344L132.459 56.9378C131.132 56.7843 129.832 56.6302 128.557 56.4755L128.497 56.9719C127.164 56.8102 125.86 56.6479 124.585 56.4849L124.648 55.9889C123.263 55.8118 121.911 55.634 120.594 55.4555L120.527 55.9509C119.209 55.7722 117.925 55.5927 116.677 55.4126L116.748 54.9177C115.371 54.719 114.036 54.5195 112.745 54.3191L112.668 54.8132C111.307 54.602 109.993 54.3898 108.728 54.1767L108.811 53.6836C107.465 53.457 106.174 53.2293 104.938 53.0007L104.847 53.4924C103.454 53.2346 102.131 52.9755 100.88 52.7153L100.982 52.2257C99.6064 51.9397 98.3184 51.6525 97.1189 51.364L97.002 51.8502C95.6311 51.5205 94.3738 51.189 93.2322 50.8557L93.3724 50.3757C91.9031 49.9468 90.6335 49.5168 89.5656 49.0867L89.3788 49.5504C87.8482 48.9339 86.7113 48.3119 85.9801 47.685L86.3056 47.3054C85.7063 46.7915 85.5 46.356 85.5 46C85.5 45.6439 85.7064 45.2082 86.3061 44.6942L85.9807 44.3146C86.712 43.6877 87.8489 43.0657 89.3796 42.4493L89.5664 42.9131C90.6343 42.4829 91.9038 42.053 93.3731 41.6241L93.233 41.1441C94.3746 40.8108 95.6319 40.4793 97.0029 40.1496L97.1198 40.6358C98.3193 40.3473 99.6072 40.0601 100.982 39.7741L100.881 39.2846C102.132 39.0243 103.455 38.7652 104.848 38.5075L104.939 38.9991C106.175 38.7705 107.466 38.5429 108.812 38.3162L108.729 37.8232C109.994 37.6101 111.308 37.3979 112.669 37.1867L112.746 37.6808C114.037 37.4804 115.372 37.2809 116.749 37.0822L116.677 36.5873C117.926 36.4071 119.21 36.2277 120.528 36.049L120.595 36.5444C121.912 36.3659 123.264 36.188 124.649 36.011L124.586 35.515C125.861 35.352 127.165 35.1897 128.497 35.028L128.558 35.5244C129.832 35.3697 131.133 35.2156 132.46 35.0621L132.403 34.5655C133.731 34.4119 135.085 34.2589 136.464 34.1065L136.519 34.6035C137.808 34.4611 139.12 34.3192 140.454 34.1779L140.401 33.6807C141.68 33.5452 142.978 33.4103 144.297 33.2759L144.348 33.7734C145.666 33.639 147.005 33.5052 148.364 33.3719L148.315 32.8743C149.647 32.7435 150.999 32.6132 152.37 32.4835L152.418 32.9812C153.687 32.8611 154.972 32.7415 156.274 32.6222L156.228 32.1243C157.531 32.005 158.849 31.8862 160.184 31.7678L160.228 32.2658C161.562 32.1475 162.912 32.0295 164.279 31.9121L164.236 31.4139C165.551 31.3008 166.881 31.1882 168.226 31.0759L168.268 31.5742C169.55 31.4672 170.846 31.3606 172.155 31.2543L172.114 30.7559C173.424 30.6497 174.746 30.5438 176.082 30.4383L176.122 30.9367C177.457 30.8313 178.806 30.7262 180.167 30.6215L180.129 30.123C181.454 30.0212 182.791 29.9197 184.141 29.8186L184.178 30.3172C185.463 30.221 186.759 30.1251 188.066 30.0296L188.029 29.5309C189.337 29.4353 190.655 29.3401 191.984 29.2453L192.02 29.744C193.349 29.6492 194.689 29.5547 196.04 29.4606L196.005 28.9618C197.356 28.8677 198.718 28.7739 200.09 28.6805L200.124 29.1793C201.41 29.0918 202.704 29.0047 204.009 28.9179L203.975 28.419C205.275 28.3324 206.585 28.2462 207.904 28.1602L207.936 28.6592C209.255 28.5733 210.582 28.4877 211.919 28.4024L211.887 27.9034C213.225 27.8182 214.571 27.7332 215.927 27.6486L215.958 28.1476C217.295 28.0642 218.641 27.981 219.995 27.8982L219.965 27.3991C221.255 27.3202 222.553 27.2416 223.86 27.1633L223.89 27.6624C225.196 27.5842 226.51 27.5062 227.832 27.4284L227.803 26.9293C229.125 26.8516 230.455 26.7742 231.793 26.6971L231.822 27.1962C233.159 27.1191 234.505 27.0423 235.858 26.9658L235.83 26.4666C237.169 26.3909 238.516 26.3155 239.871 26.2404L239.899 26.7396C241.192 26.6679 242.492 26.5964 243.799 26.5253L243.772 26.026C245.079 25.9548 246.393 25.8839 247.713 25.8133L247.74 26.3126C249.061 26.242 250.388 26.1716 251.722 26.1015L251.696 25.6022C253.03 25.5322 254.372 25.4624 255.719 25.3928L255.745 25.8922C257.093 25.8227 258.447 25.7534 259.808 25.6845L259.783 25.1851C261.085 25.1192 262.393 25.0535 263.707 24.9881L263.732 25.4874C265.036 25.4225 266.346 25.3578 267.663 25.2934L267.638 24.794C268.954 24.7295 270.277 24.6654 271.605 24.6014L271.629 25.1009C272.957 25.0369 274.291 24.9733 275.631 24.9099L275.607 24.4105C276.947 24.3471 278.293 24.2839 279.644 24.2211L279.668 24.7205C281.003 24.6584 282.345 24.5965 283.692 24.5349L283.669 24.0354C284.969 23.9759 286.274 23.9167 287.584 23.8578L287.607 24.3573C288.917 24.2983 290.232 24.2396 291.553 24.1811L291.531 23.6816C292.851 23.6231 294.177 23.5649 295.508 23.5069L295.53 24.0064C296.86 23.9484 298.196 23.8907 299.537 23.8332L299.516 23.3337C300.857 23.2762 302.204 23.2189 303.555 23.1619L303.576 23.6615C304.906 23.6054 306.242 23.5495 307.582 23.4939L307.561 22.9943C308.864 22.9402 310.172 22.8864 311.484 22.8327L311.505 23.3323C312.817 23.2787 314.134 23.2253 315.455 23.1721L315.435 22.6725C316.757 22.6194 318.083 22.5665 319.413 22.5138L319.433 23.0134C320.764 22.9607 322.099 22.9082 323.438 22.856L323.419 22.3564C324.758 22.3041 326.103 22.2522 327.451 22.2004L327.47 22.7C328.808 22.6487 330.149 22.5976 331.495 22.5468L331.476 22.0472C332.78 21.9979 334.088 21.9489 335.4 21.9L335.419 22.3997C336.731 22.3509 338.047 22.3023 339.367 22.2539L339.349 21.7542C340.669 21.7059 341.993 21.6577 343.322 21.6098L343.34 22.1095C344.668 22.0615 346 22.0138 347.336 21.9663L347.319 21.4667C348.655 21.4192 349.995 21.3719 351.339 21.3249L351.357 21.8246C352.701 21.7776 354.049 21.7308 355.401 21.6842L355.384 21.1845C356.696 21.1393 358.012 21.0943 359.331 21.0495L359.348 21.5493C360.659 21.5048 361.972 21.4606 363.29 21.4165L363.273 20.9168C364.591 20.8728 365.912 20.829 367.237 20.7854L367.253 21.2851C368.578 21.2415 369.906 21.1981 371.238 21.155L371.222 20.6552C372.553 20.6121 373.889 20.5691 375.228 20.5264L375.244 21.0261C376.583 20.9834 377.925 20.9409 379.271 20.8986L379.255 20.3988C380.593 20.3567 381.935 20.3149 383.28 20.2733L383.295 20.773C384.603 20.7326 385.913 20.6923 387.227 20.6523L387.212 20.1525C388.526 20.1125 389.843 20.0726 391.164 20.033L391.179 20.5327C392.499 20.4931 393.822 20.4537 395.149 20.4145L395.134 19.9147C396.461 19.8755 397.791 19.8364 399.124 19.7976L399.139 20.2974C400.472 20.2586 401.808 20.22 403.148 20.1816L403.133 19.6818C404.473 19.6434 405.815 19.6053 407.161 19.5673L407.175 20.0671C408.508 20.0295 409.844 19.9921 411.184 19.9549L411.17 19.4551C412.48 19.4187 413.792 19.3825 415.108 19.3465L415.122 19.8463C416.437 19.8103 417.756 19.7746 419.077 19.739L419.064 19.2392C420.385 19.2036 421.71 19.1682 423.037 19.133L423.05 19.6328C424.377 19.5976 425.707 19.5627 427.04 19.5279L427.027 19.0281C428.36 18.9933 429.695 18.9587 431.034 18.9243L431.047 19.4242C432.385 19.3898 433.726 19.3556 435.07 19.3217L435.058 18.8218C436.394 18.788 437.733 18.7545 439.074 18.7211L439.087 19.221C440.398 19.1884 441.711 19.156 443.027 19.1238L443.015 18.6239C444.331 18.5917 445.65 18.5597 446.971 18.5279L446.983 19.0277C448.304 18.9959 449.628 18.9643 450.954 18.9329L450.942 18.433C452.269 18.4016 453.598 18.3703 454.929 18.3393L454.941 18.8392C456.272 18.8081 457.606 18.7773 458.943 18.7467L458.931 18.2468C460.268 18.2161 461.607 18.1857 462.949 18.1555L462.96 18.6553C464.301 18.6251 465.646 18.595 466.992 18.5652L466.981 18.0653C468.295 18.0362 469.612 18.0073 470.931 17.9785L470.942 18.4784C472.257 18.4497 473.575 18.4212 474.895 18.3929L474.884 17.893C476.205 17.8648 477.527 17.8366 478.852 17.8087L478.863 18.3086C480.187 18.2807 481.515 18.253 482.844 18.2255L482.834 17.7256C484.163 17.698 485.495 17.6707 486.829 17.6436L486.839 18.1434C488.173 18.1163 489.509 18.0894 490.848 18.0626L490.838 17.5627C492.176 17.5359 493.517 17.5094 494.86 17.483L494.87 17.9829C496.2 17.9568 497.531 17.9309 498.866 17.9051L498.856 17.4052C500.17 17.3799 501.487 17.3547 502.806 17.3297L502.815 17.8297C504.134 17.8047 505.454 17.7799 506.777 17.7553L506.768 17.2554C508.091 17.2308 509.416 17.2063 510.743 17.1821L510.752 17.682C512.079 17.6578 513.408 17.6338 514.739 17.6099L514.73 17.11C516.061 17.0861 517.394 17.0625 518.729 17.039L518.738 17.5389C520.073 17.5154 521.41 17.4922 522.75 17.4691L522.741 16.9691C524.08 16.946 525.422 16.9231 526.765 16.9004L526.773 17.4003C528.095 17.378 529.418 17.3558 530.744 17.3339L530.736 16.8339C532.052 16.8121 533.371 16.7904 534.692 16.769L534.7 17.2689C536.02 17.2474 537.343 17.2262 538.667 17.205L538.659 16.7051C539.983 16.684 541.309 16.6631 542.637 16.6424L542.645 17.1423C543.973 17.1216 545.303 17.101 546.635 17.0807L546.627 16.5807C547.959 16.5604 549.293 16.5402 550.628 16.5202L550.636 17.0201C551.971 17.0001 553.308 16.9803 554.647 16.9607L554.64 16.4608C555.979 16.4411 557.32 16.4217 558.663 16.4025L558.67 16.9024C559.989 16.8835 561.309 16.8648 562.632 16.8463L562.625 16.3463C563.943 16.3278 565.263 16.3095 566.584 16.2914L566.591 16.7913C567.913 16.7732 569.236 16.7553 570.561 16.7375L570.554 16.2376C571.879 16.2198 573.206 16.2022 574.534 16.1848L574.541 16.6848C575.869 16.6674 577.199 16.6502 578.531 16.6332L578.524 16.1332C579.856 16.1162 581.189 16.0993 582.524 16.0827L582.531 16.5826C583.866 16.566 585.202 16.5495 586.54 16.5332L586.534 16.0332C587.873 16.0169 589.213 16.0008 590.554 15.9849L590.56 16.4848C591.881 16.4692 593.203 16.4537 594.526 16.4383L594.521 15.9384C595.84 15.9231 597.16 15.908 598.482 15.8931L598.488 16.3931C599.81 16.3782 601.133 16.3634 602.458 16.3489L602.453 15.8489C603.778 15.8344 605.104 15.82 606.433 15.8058L606.438 16.3058C607.766 16.2916 609.096 16.2776 610.427 16.2638L610.421 15.7638C611.753 15.75 613.085 15.7363 614.419 15.7228L614.424 16.2228C615.758 16.2093 617.094 16.1961 618.431 16.1829L618.426 15.683C619.763 15.6699 621.101 15.6569 622.441 15.6442L622.446 16.1442C623.771 16.1316 625.098 16.1192 626.426 16.1069L626.422 15.6069C627.741 15.5948 629.062 15.5828 630.384 15.571L630.388 16.071C631.71 16.0591 633.033 16.0475 634.358 16.0361L634.354 15.5361C635.679 15.5246 637.005 15.5134 638.332 15.5023L638.336 16.0022C639.664 15.9911 640.993 15.9802 642.323 15.9695L642.319 15.4695C643.649 15.4588 644.981 15.4482 646.313 15.4378L646.317 15.9378C647.65 15.9274 648.984 15.9172 650.32 15.9072L650.316 15.4072C651.652 15.3972 652.988 15.3873 654.327 15.3777L654.33 15.8777C655.662 15.868 656.996 15.8586 658.33 15.8493L658.327 15.3494C659.646 15.3402 660.967 15.3312 662.288 15.3224L662.292 15.8224C663.613 15.8136 664.936 15.805 666.261 15.7965L666.257 15.2965C667.582 15.2881 668.907 15.2798 670.234 15.2717L670.237 15.7717C671.564 15.7636 672.891 15.7557 674.22 15.748L674.218 15.248C675.547 15.2402 676.877 15.2327 678.209 15.2253L678.211 15.7253C679.543 15.7179 680.875 15.7107 682.209 15.7036L682.207 15.2037C683.541 15.1966 684.876 15.1898 686.212 15.1831L686.214 15.6831C687.551 15.6764 688.888 15.6699 690.227 15.6636L690.224 15.1636C691.547 15.1574 692.871 15.1513 694.196 15.1454L694.198 15.6454C695.52 15.6396 696.842 15.6339 698.166 15.6283L698.163 15.1283C699.487 15.1228 700.812 15.1175 702.138 15.1123L702.14 15.6123C703.465 15.6071 704.792 15.6021 706.12 15.5973L706.118 15.0973C707.446 15.0925 708.775 15.0879 710.105 15.0834L710.107 15.5834C711.437 15.5789 712.768 15.5747 714.1 15.5705L714.099 15.0705C715.431 15.0664 716.764 15.0625 718.099 15.0588L718.1 15.5588C719.435 15.555 720.77 15.5514 722.106 15.548L722.105 15.048C723.438 15.0446 724.771 15.0414 726.106 15.0384L726.107 15.5384C727.428 15.5354 728.75 15.5326 730.073 15.5299L730.072 15.0299C731.395 15.0273 732.719 15.0248 734.044 15.0225L734.045 15.5225C735.369 15.5202 736.695 15.5181 738.022 15.5161L738.021 15.0161C739.348 15.0142 740.676 15.0124 742.005 15.0108L742.005 15.5108C743.334 15.5092 744.664 15.5078 745.994 15.5065L745.994 15.0065C747.324 15.0053 748.656 15.0042 749.989 15.0033L749.989 15.5033C751.321 15.5025 752.655 15.5017 753.989 15.5012L753.989 15.0012C755.323 15.0007 756.659 15.0003 757.995 15.0001L757.995 15.5001L760 15.5L762.006 15.5001L762.006 15.0001C763.342 15.0003 764.678 15.0007 766.012 15.0012L766.012 15.5012C767.346 15.5017 768.68 15.5025 770.012 15.5033L770.012 15.0033C771.345 15.0042 772.677 15.0053 774.007 15.0065L774.007 15.5065C775.337 15.5078 776.667 15.5092 777.996 15.5108L777.996 15.0108C779.325 15.0124 780.653 15.0142 781.98 15.0161L781.979 15.5161C783.306 15.5181 784.632 15.5202 785.956 15.5225L785.957 15.0225C787.282 15.0248 788.606 15.0273 789.929 15.0299L789.928 15.5299C791.251 15.5326 792.573 15.5354 793.894 15.5384L793.895 15.0384C795.229 15.0414 796.563 15.0446 797.896 15.048L797.895 15.548C799.231 15.5514 800.566 15.555 801.901 15.5588L801.902 15.0588C803.237 15.0625 804.57 15.0664 805.902 15.0706L805.901 15.5705C807.233 15.5747 808.564 15.5789 809.894 15.5834L809.896 15.0834C811.226 15.0879 812.555 15.0925 813.883 15.0973L813.881 15.5973C815.209 15.6021 816.536 15.6071 817.861 15.6123L817.863 15.1123C819.189 15.1175 820.514 15.1228 821.837 15.1283L821.835 15.6283C823.159 15.6339 824.481 15.6396 825.803 15.6454L825.805 15.1454C827.13 15.1513 828.454 15.1574 829.777 15.1636L829.774 15.6636C831.113 15.6699 832.45 15.6764 833.786 15.6831L833.789 15.1831C835.125 15.1898 836.46 15.1966 837.794 15.2037L837.792 15.7036C839.125 15.7107 840.458 15.7179 841.79 15.7253L841.792 15.2253C843.124 15.2327 844.454 15.2402 845.783 15.248L845.78 15.748C847.109 15.7557 848.437 15.7636 849.764 15.7717L849.767 15.2717C851.094 15.2798 852.419 15.2881 853.744 15.2966L853.74 15.7965C855.065 15.805 856.388 15.8136 857.709 15.8224L857.713 15.3224C859.034 15.3312 860.355 15.3402 861.674 15.3494L861.671 15.8494C863.005 15.8586 864.339 15.868 865.671 15.8777L865.674 15.3777C867.012 15.3873 868.349 15.3972 869.685 15.4072L869.681 15.9072C871.016 15.9172 872.351 15.9274 873.683 15.9378L873.687 15.4378C875.02 15.4482 876.352 15.4588 877.682 15.4695L877.678 15.9695C879.008 15.9802 880.337 15.9911 881.664 16.0022L881.669 15.5023C882.996 15.5134 884.322 15.5246 885.647 15.5361L885.643 16.0361C886.967 16.0475 888.291 16.0592 889.613 16.071L889.617 15.571C890.939 15.5828 892.26 15.5948 893.579 15.6069L893.575 16.1069C894.903 16.1192 896.229 16.1316 897.555 16.1442L897.56 15.6442C898.899 15.657 900.238 15.6699 901.575 15.683L901.57 16.183C902.907 16.1961 904.242 16.2093 905.577 16.2228L905.582 15.7228C906.916 15.7363 908.248 15.75 909.579 15.7638L909.574 16.2638C910.905 16.2776 912.235 16.2916 913.563 16.3058L913.568 15.8058C914.896 15.82 916.223 15.8344 917.548 15.8489L917.542 16.3489C918.867 16.3635 920.191 16.3782 921.513 16.3931L921.519 15.8931C922.841 15.908 924.161 15.9231 925.48 15.9384L925.474 16.4384C926.798 16.4537 928.12 16.4692 929.441 16.4849L929.447 15.9849C930.788 16.0008 932.128 16.0169 933.467 16.0332L933.46 16.5332C934.799 16.5495 936.135 16.566 937.47 16.5826L937.476 16.0827C938.811 16.0993 940.145 16.1162 941.476 16.1332L941.47 16.6332C942.802 16.6502 944.132 16.6674 945.46 16.6848L945.466 16.1849C946.795 16.2022 948.121 16.2198 949.446 16.2376L949.44 16.7375C950.765 16.7553 952.088 16.7732 953.409 16.7914L953.416 16.2914C954.738 16.3095 956.058 16.3278 957.376 16.3463L957.369 16.8463C958.692 16.8648 960.012 16.8835 961.331 16.9024L961.338 16.4025C962.681 16.4217 964.022 16.4412 965.361 16.4608L965.354 16.9607C966.693 16.9803 968.03 17.0001 969.365 17.0201L969.373 16.5202C970.708 16.5402 972.042 16.5604 973.374 16.5807L973.366 17.0807C974.698 17.101 976.028 17.1216 977.356 17.1423L977.363 16.6424C978.691 16.6631 980.018 16.684 981.342 16.7051L981.334 17.2051C982.658 17.2262 983.981 17.2474 985.301 17.2689L985.309 16.769C986.63 16.7905 987.949 16.8121 989.265 16.8339L989.257 17.3339C990.582 17.3559 991.906 17.378 993.227 17.4004L993.236 16.9004C994.579 16.9232 995.92 16.9461 997.26 16.9692L997.251 17.4691C998.59 17.4922 999.928 17.5155 1001.26 17.5389L1001.27 17.039C1002.61 17.0625 1003.94 17.0862 1005.27 17.11L1005.26 17.6099C1006.59 17.6338 1007.92 17.6578 1009.25 17.6821L1009.26 17.1821C1010.59 17.2064 1011.91 17.2308 1013.23 17.2554L1013.22 17.7553C1014.55 17.7799 1015.87 17.8047 1017.19 17.8297L1017.2 17.3298C1018.51 17.3547 1019.83 17.3799 1021.14 17.4053L1021.14 17.9052C1022.47 17.9309 1023.8 17.9568 1025.13 17.9829L1025.14 17.483C1026.48 17.5094 1027.82 17.5359 1029.16 17.5627L1029.15 18.0626C1030.49 18.0894 1031.83 18.1163 1033.16 18.1435L1033.17 17.6436C1034.51 17.6707 1035.84 17.6981 1037.17 17.7256L1037.16 18.2255C1038.49 18.253 1039.81 18.2807 1041.14 18.3086L1041.15 17.8088C1042.47 17.8367 1043.8 17.8648 1045.12 17.8931L1045.11 18.393C1046.43 18.4212 1047.74 18.4497 1049.06 18.4784L1049.07 17.9785C1050.39 18.0073 1051.71 18.0362 1053.02 18.0653L1053.01 18.5652C1054.36 18.5951 1055.7 18.6251 1057.04 18.6554L1057.05 18.1555C1058.39 18.1857 1059.73 18.2162 1061.07 18.2468L1061.06 18.7467C1062.39 18.7773 1063.73 18.8082 1065.06 18.8392L1065.07 18.3393C1066.4 18.3704 1067.73 18.4016 1069.06 18.433L1069.05 18.9329C1070.37 18.9643 1071.7 18.9959 1073.02 19.0277L1073.03 18.5279C1074.35 18.5597 1075.67 18.5917 1076.99 18.6239L1076.97 19.1238C1078.29 19.156 1079.6 19.1884 1080.91 19.221L1080.93 18.7211C1082.27 18.7545 1083.61 18.7881 1084.94 18.8218L1084.93 19.3217C1086.27 19.3556 1087.62 19.3898 1088.95 19.4242L1088.97 18.9243C1090.31 18.9587 1091.64 18.9933 1092.97 19.0281L1092.96 19.5279C1094.29 19.5627 1095.62 19.5977 1096.95 19.6329L1096.96 19.133C1098.29 19.1682 1099.62 19.2036 1100.94 19.2392L1100.92 19.739C1102.24 19.7746 1103.56 19.8104 1104.88 19.8464L1104.89 19.3465C1106.21 19.3825 1107.52 19.4187 1108.83 19.4551L1108.82 19.9549C1110.16 19.9921 1111.49 20.0295 1112.83 20.0671L1112.84 19.5673C1114.19 19.6053 1115.53 19.6435 1116.87 19.6819L1116.85 20.1817C1118.19 20.22 1119.53 20.2586 1120.86 20.2974L1120.88 19.7977C1122.21 19.8365 1123.54 19.8755 1124.87 19.9147L1124.85 20.4145C1126.18 20.4537 1127.5 20.4931 1128.82 20.5328L1128.84 20.033C1130.16 20.0726 1131.47 20.1125 1132.79 20.1525L1132.77 20.6523C1134.09 20.6924 1135.4 20.7326 1136.71 20.7731L1136.72 20.2733C1138.07 20.3149 1139.41 20.3568 1140.75 20.3988L1140.73 20.8986C1142.08 20.9409 1143.42 20.9834 1144.76 21.0261L1144.77 20.5264C1146.11 20.5691 1147.45 20.6121 1148.78 20.6552L1148.76 21.155C1150.09 21.1982 1151.42 21.2415 1152.75 21.2851L1152.76 20.7854C1154.09 20.829 1155.41 20.8728 1156.73 20.9168L1156.71 21.4166C1158.03 21.4606 1159.34 21.5048 1160.65 21.5493L1160.67 21.0496C1161.99 21.0943 1163.3 21.1393 1164.62 21.1845L1164.6 21.6842C1165.95 21.7308 1167.3 21.7776 1168.64 21.8246L1168.66 21.3249C1170.01 21.372 1171.35 21.4192 1172.68 21.4667L1172.66 21.9664C1174 22.0139 1175.33 22.0616 1176.66 22.1095L1176.68 21.6098C1178.01 21.6577 1179.33 21.7059 1180.65 21.7543L1180.63 22.2539C1181.95 22.3023 1183.27 22.3509 1184.58 22.3997L1184.6 21.9001C1185.91 21.9489 1187.22 21.9979 1188.52 22.0472L1188.51 22.5468C1189.85 22.5977 1191.19 22.6488 1192.53 22.7001L1192.55 22.2004C1193.9 22.2522 1195.24 22.3042 1196.58 22.3564L1196.56 22.856C1197.9 22.9082 1199.24 22.9607 1200.57 23.0134L1200.59 22.5138C1201.92 22.5665 1203.24 22.6194 1204.57 22.6726L1204.55 23.1722C1205.87 23.2253 1207.18 23.2787 1208.5 23.3323L1208.52 22.8328C1209.83 22.8864 1211.14 22.9403 1212.44 22.9943L1212.42 23.4939C1213.76 23.5495 1215.09 23.6054 1216.42 23.6615L1216.45 23.162C1217.8 23.219 1219.14 23.2762 1220.48 23.3337L1220.46 23.8332C1221.8 23.8907 1223.14 23.9485 1224.47 24.0064L1224.49 23.5069C1225.82 23.5649 1227.15 23.6231 1228.47 23.6816L1228.45 24.1811C1229.77 24.2396 1231.08 24.2983 1232.39 24.3573L1232.42 23.8578C1233.73 23.9168 1235.03 23.976 1236.33 24.0354L1236.31 24.5349C1237.66 24.5965 1239 24.6584 1240.33 24.7206L1240.36 24.2211C1241.71 24.284 1243.05 24.3471 1244.39 24.4105L1244.37 24.9099C1245.71 24.9733 1247.04 25.037 1248.37 25.1009L1248.4 24.6015C1249.72 24.6654 1251.05 24.7296 1252.36 24.794L1252.34 25.2934C1253.65 25.3578 1254.96 25.4225 1256.27 25.4875L1256.29 24.9881C1257.61 25.0535 1258.92 25.1192 1260.22 25.1852L1260.19 25.6845C1261.55 25.7535 1262.91 25.8227 1264.26 25.8922L1264.28 25.3929C1265.63 25.4624 1266.97 25.5322 1268.3 25.6023L1268.28 26.1016C1269.61 26.1716 1270.94 26.242 1272.26 26.3126L1272.29 25.8133C1273.61 25.884 1274.92 25.9549 1276.23 26.026L1276.2 26.5253C1277.51 26.5965 1278.81 26.6679 1280.1 26.7396L1280.13 26.2404C1281.48 26.3155 1282.83 26.3909 1284.17 26.4667L1284.14 26.9659C1285.5 27.0424 1286.84 27.1192 1288.18 27.1963L1288.21 26.6971C1289.55 26.7742 1290.88 26.8516 1292.2 26.9294L1292.17 27.4285C1293.49 27.5062 1294.8 27.5842 1296.11 27.6625L1296.14 27.1634C1297.45 27.2417 1298.75 27.3203 1300.04 27.3992L1300.01 27.8983C1301.36 27.9811 1302.71 28.0642 1304.04 28.1477L1304.07 27.6487C1305.43 27.7333 1306.78 27.8182 1308.11 27.9035L1308.08 28.4025C1309.42 28.4877 1310.75 28.5733 1312.06 28.6592L1312.1 28.1603C1313.42 28.2462 1314.73 28.3325 1316.03 28.419L1315.99 28.9179C1317.3 29.0047 1318.59 29.0919 1319.88 29.1794L1319.91 28.6805C1321.28 28.7739 1322.65 28.8677 1324 28.9618L1323.96 29.4606C1325.31 29.5548 1326.65 29.6492 1327.98 29.7441L1328.02 29.2453C1329.35 29.3402 1330.66 29.4354 1331.97 29.531L1331.93 30.0296C1333.24 30.1252 1334.54 30.221 1335.82 30.3173L1335.86 29.8187C1337.21 29.9198 1338.55 30.0212 1339.87 30.1231L1339.83 30.6216C1341.2 30.7263 1342.54 30.8313 1343.88 30.9368L1343.92 30.4384C1345.25 30.5439 1346.58 30.6497 1347.89 30.756L1347.85 31.2544C1349.15 31.3606 1350.45 31.4673 1351.73 31.5743L1351.77 31.076C1353.12 31.1882 1354.45 31.3009 1355.76 31.414L1355.72 31.9121C1357.09 32.0296 1358.44 32.1475 1359.77 32.2659L1359.82 31.7678C1361.15 31.8862 1362.47 32.0051 1363.77 32.1244L1363.73 32.6223C1365.03 32.7415 1366.31 32.8612 1367.58 32.9813L1367.63 32.4835C1369 32.6133 1370.35 32.7436 1371.69 32.8743L1371.64 33.3719C1373 33.5053 1374.33 33.6391 1375.65 33.7734L1375.7 33.276C1377.02 33.4104 1378.32 33.5453 1379.6 33.6807L1379.55 34.178C1380.88 34.3193 1382.19 34.4612 1383.48 34.6036L1383.54 34.1066C1384.92 34.259 1386.27 34.412 1387.6 34.5656L1387.54 35.0622C1388.87 35.2157 1390.17 35.3698 1391.44 35.5245L1391.5 35.0281C1392.84 35.1898 1394.14 35.3521 1395.42 35.5151L1395.35 36.0111C1396.74 36.1882 1398.09 36.366 1399.41 36.5445L1399.47 36.0491C1400.79 36.2278 1402.07 36.4073 1403.32 36.5874L1403.25 37.0823C1404.63 37.281 1405.96 37.4805 1407.25 37.6809L1407.33 37.1868C1408.69 37.398 1410.01 37.6102 1411.27 37.8233L1411.19 38.3164C1412.54 38.543 1413.83 38.7707 1415.06 38.9993L1415.15 38.5076C1416.55 38.7654 1417.87 39.0245 1419.12 39.2848L1419.02 39.7743C1420.39 40.0603 1421.68 40.3475 1422.88 40.636L1423 40.1498C1424.37 40.4795 1425.63 40.811 1426.77 41.1443L1426.63 41.6243C1428.1 42.0532 1429.37 42.4832 1430.43 42.9134L1430.62 42.4496Z" stroke="#DCC152" stroke-opacity="0.1" stroke-dasharray="4 4"/>
<defs>
<linearGradient id="paint0_linear_103_522" x1="965" y1="-7.72082e-06" x2="976" y2="92" gradientUnits="userSpaceOnUse">
<stop stop-color="#DCC152" stop-opacity="0.3"/>
<stop offset="0.635417" stop-opacity="0"/>
</linearGradient>
</defs>
</svg>
