<svg width="58" height="58" viewBox="0 0 58 58" fill="none" xmlns="http://www.w3.org/2000/svg">
<path d="M46.6511 57.0352C42.5161 57.0352 40.1054 50.8469 39.037 47.1586C38.975 46.9192 39.0087 46.665 39.1311 46.4501C39.2535 46.2351 39.4548 46.0763 39.6923 46.0074C39.9299 45.9385 40.185 45.9649 40.4034 46.081C40.6218 46.1971 40.7863 46.3937 40.8621 46.6292C42.4049 51.9543 44.5693 55.134 46.6511 55.134C49.4876 55.134 50.1682 52.0028 50.3232 50.1368C50.451 47.6233 50.2409 45.1039 49.6987 42.6462L49.4715 41.4647C49.0912 39.4647 48.6958 37.3962 48.1264 35.4352C47.9375 34.7815 47.7218 34.1358 47.48 33.4998C46.634 31.3144 45.6568 30.1404 44.3184 29.6984C42.6862 29.1604 40.9571 29.6946 39.3307 30.3505C39.2177 30.3961 39.097 30.4194 38.9752 30.419H18.4788C18.3569 30.4191 18.2362 30.3955 18.1233 30.3496C16.8837 29.8496 14.532 29.1005 12.7183 29.6984C11.3808 30.1395 10.4046 31.3144 9.55383 33.5055C9.31359 34.1394 9.09922 34.7829 8.91124 35.4342C8.34089 37.3953 7.94735 39.4647 7.56617 41.4647L7.33803 42.6481C6.79618 45.1052 6.58645 47.6239 6.71445 50.1368C6.86844 52.0028 7.55001 55.134 10.3865 55.134C12.4683 55.134 14.6328 51.9543 16.1756 46.6292C16.2513 46.3937 16.4159 46.1971 16.6343 46.081C16.8527 45.9649 17.1077 45.9385 17.3453 46.0074C17.5828 46.0763 17.7842 46.2351 17.9065 46.4501C18.0289 46.665 18.0627 46.9192 18.0007 47.1586C16.9322 50.8469 14.5216 57.0352 10.3865 57.0352C7.24963 57.0352 5.16786 54.5142 4.81995 50.2927C4.67546 47.6073 4.89599 44.9143 5.47204 42.2879L5.69828 41.1092C6.08802 39.0654 6.49106 36.9513 7.08613 34.9047C7.2924 34.1899 7.51959 33.5093 7.78005 32.8239C8.44925 31.0986 9.62417 28.7174 12.1223 27.8923C14.3229 27.1699 16.86 27.8134 18.6604 28.5178H38.7927C40.6938 27.59 42.864 27.3676 44.9144 27.8923C47.4135 28.7184 48.5884 31.0986 49.2557 32.8173C49.518 33.5093 49.7452 34.1899 49.9525 34.9047C50.5466 36.9513 50.9496 39.0645 51.3394 41.1082L51.5646 42.285C52.1426 44.9124 52.3622 47.6054 52.2177 50.2917C51.8698 54.5142 49.789 57.0352 46.6511 57.0352Z" fill="white"/>
<path d="M32.3211 46.5788H24.7069C24.4548 46.5788 24.213 46.4787 24.0348 46.3004C23.8565 46.1221 23.7563 45.8803 23.7563 45.6282C23.7563 45.3761 23.8565 45.1343 24.0348 44.9561C24.213 44.7778 24.4548 44.6776 24.7069 44.6776H32.3211C32.5732 44.6776 32.815 44.7778 32.9932 44.9561C33.1715 45.1343 33.2716 45.3761 33.2716 45.6282C33.2716 45.8803 33.1715 46.1221 32.9932 46.3004C32.815 46.4787 32.5732 46.5788 32.3211 46.5788Z" fill="white"/>
<path d="M20.9095 50.3811C20.2854 50.3817 19.6672 50.2593 19.0903 50.021C18.5135 49.7826 17.9892 49.433 17.5475 48.992C17.1057 48.5511 16.7551 48.0275 16.5158 47.451C16.2764 46.8746 16.1529 46.2567 16.1523 45.6325C16.1518 45.0083 16.2742 44.3902 16.5125 43.8133C16.7508 43.2365 17.1005 42.7122 17.5414 42.2704C17.9824 41.8287 18.506 41.4781 19.0824 41.2388C19.6589 40.9994 20.2768 40.8759 20.901 40.8753C22.1615 40.8741 23.3709 41.3736 24.2632 42.2641C25.1554 43.1545 25.6573 44.3629 25.6586 45.6235C25.6599 46.884 25.1603 48.0934 24.2699 48.9857C23.3794 49.8779 22.1701 50.3799 20.9095 50.3811ZM20.9095 42.7765C20.1532 42.7754 19.4274 43.0747 18.8918 43.6087C18.3562 44.1427 18.0546 44.8676 18.0535 45.6239C18.0524 46.3803 18.3517 47.1061 18.8857 47.6417C19.4197 48.1773 20.1446 48.4788 20.901 48.48C21.6573 48.4812 22.3831 48.182 22.9188 47.6481C23.4545 47.1142 23.7562 46.3893 23.7574 45.633C23.7587 44.8766 23.4595 44.1508 22.9256 43.6151C22.3916 43.0794 21.6658 42.7777 20.9095 42.7765ZM36.1188 50.3811C35.4946 50.3817 34.8765 50.2593 34.2996 50.021C33.7227 49.7826 33.1985 49.433 32.7567 48.992C32.315 48.5511 31.9644 48.0275 31.725 47.451C31.4857 46.8746 31.3622 46.2567 31.3616 45.6325C31.361 45.0083 31.4834 44.3902 31.7218 43.8133C31.9601 43.2365 32.3097 42.7122 32.7507 42.2704C33.1916 41.8287 33.7153 41.4781 34.2917 41.2388C34.8681 40.9994 35.4861 40.8759 36.1102 40.8753C37.3708 40.8741 38.5802 41.3736 39.4724 42.2641C40.3646 43.1545 40.8666 44.3629 40.8679 45.6235C40.8691 46.884 40.3696 48.0934 39.4791 48.9857C38.5887 49.8779 37.3793 50.3799 36.1188 50.3811ZM36.1188 42.7765C35.3624 42.7754 34.6366 43.0747 34.101 43.6087C33.5654 44.1427 33.2639 44.8676 33.2628 45.6239C33.2616 46.3803 33.561 47.1061 34.095 47.6417C34.629 48.1773 35.3539 48.4788 36.1102 48.48C36.8665 48.4812 37.5924 48.182 38.1281 47.6481C38.6638 47.1142 38.9654 46.3893 38.9667 45.633C38.968 44.8766 38.6687 44.1508 38.1348 43.6151C37.6009 43.0794 36.8751 42.7777 36.1188 42.7765ZM25.6672 38.0236H23.766C23.5139 38.0236 23.2721 37.9234 23.0938 37.7452C22.9156 37.5669 22.8154 37.3251 22.8154 37.073C22.8154 36.8209 22.9156 36.5791 23.0938 36.4009C23.2721 36.2226 23.5139 36.1224 23.766 36.1224H25.6672C25.9193 36.1224 26.1611 36.2226 26.3393 36.4009C26.5176 36.5791 26.6177 36.8209 26.6177 37.073C26.6177 37.3251 26.5176 37.5669 26.3393 37.7452C26.1611 37.9234 25.9193 38.0236 25.6672 38.0236ZM33.2718 38.0236H31.3706C31.1185 38.0236 30.8767 37.9234 30.6985 37.7452C30.5202 37.5669 30.4201 37.3251 30.4201 37.073C30.4201 36.8209 30.5202 36.5791 30.6985 36.4009C30.8767 36.2226 31.1185 36.1224 31.3706 36.1224H33.2718C33.5239 36.1224 33.7657 36.2226 33.944 36.4009C34.1222 36.5791 34.2224 36.8209 34.2224 37.073C34.2224 37.3251 34.1222 37.5669 33.944 37.7452C33.7657 37.9234 33.5239 38.0236 33.2718 38.0236Z" fill="white"/>
<path d="M42.7775 40.8753C43.3025 40.8753 43.7281 40.4498 43.7281 39.9248C43.7281 39.3998 43.3025 38.9742 42.7775 38.9742C42.2525 38.9742 41.8269 39.3998 41.8269 39.9248C41.8269 40.4498 42.2525 40.8753 42.7775 40.8753Z" fill="white"/>
<path d="M42.7775 35.1719C43.3025 35.1719 43.7281 34.7463 43.7281 34.2213C43.7281 33.6963 43.3025 33.2707 42.7775 33.2707C42.2525 33.2707 41.8269 33.6963 41.8269 34.2213C41.8269 34.7463 42.2525 35.1719 42.7775 35.1719Z" fill="white"/>
<path d="M45.6293 38.0236C46.1543 38.0236 46.5799 37.598 46.5799 37.073C46.5799 36.548 46.1543 36.1224 45.6293 36.1224C45.1043 36.1224 44.6787 36.548 44.6787 37.073C44.6787 37.598 45.1043 38.0236 45.6293 38.0236Z" fill="white"/>
<path d="M39.9258 38.0236C40.4508 38.0236 40.8764 37.598 40.8764 37.073C40.8764 36.548 40.4508 36.1224 39.9258 36.1224C39.4008 36.1224 38.9752 36.548 38.9752 37.073C38.9752 37.598 39.4008 38.0236 39.9258 38.0236Z" fill="white"/>
<path d="M14.2601 40.8753C14.008 40.8753 13.7662 40.7752 13.588 40.5969C13.4097 40.4186 13.3096 40.1769 13.3096 39.9247V38.9742C13.3096 38.7221 13.4097 38.4803 13.588 38.302C13.7662 38.1237 14.008 38.0236 14.2601 38.0236C14.5122 38.0236 14.754 38.1237 14.9323 38.302C15.1106 38.4803 15.2107 38.7221 15.2107 38.9742V39.9247C15.2107 40.1769 15.1106 40.4186 14.9323 40.5969C14.754 40.7752 14.5122 40.8753 14.2601 40.8753ZM17.1119 38.0236H16.1613C15.9092 38.0236 15.6674 37.9234 15.4891 37.7452C15.3109 37.5669 15.2107 37.3251 15.2107 37.073C15.2107 36.8209 15.3109 36.5791 15.4891 36.4009C15.6674 36.2226 15.9092 36.1224 16.1613 36.1224H17.1119C17.364 36.1224 17.6058 36.2226 17.784 36.4009C17.9623 36.5791 18.0625 36.8209 18.0625 37.073C18.0625 37.3251 17.9623 37.5669 17.784 37.7452C17.6058 37.9234 17.364 38.0236 17.1119 38.0236ZM12.359 38.0236H11.4084C11.1563 38.0236 10.9145 37.9234 10.7362 37.7452C10.558 37.5669 10.4578 37.3251 10.4578 37.073C10.4578 36.8209 10.558 36.5791 10.7362 36.4009C10.9145 36.2226 11.1563 36.1224 11.4084 36.1224H12.359C12.6111 36.1224 12.8529 36.2226 13.0311 36.4009C13.2094 36.5791 13.3096 36.8209 13.3096 37.073C13.3096 37.3251 13.2094 37.5669 13.0311 37.7452C12.8529 37.9234 12.6111 38.0236 12.359 38.0236ZM14.2601 36.1224C14.008 36.1224 13.7662 36.0223 13.588 35.844C13.4097 35.6657 13.3096 35.424 13.3096 35.1719V34.2213C13.3096 33.9692 13.4097 33.7274 13.588 33.5491C13.7662 33.3708 14.008 33.2707 14.2601 33.2707C14.5122 33.2707 14.754 33.3708 14.9323 33.5491C15.1106 33.7274 15.2107 33.9692 15.2107 34.2213V35.1719C15.2107 35.424 15.1106 35.6657 14.9323 35.844C14.754 36.0223 14.5122 36.1224 14.2601 36.1224ZM48.0057 33.2707C47.7536 33.2707 47.5118 33.1705 47.3335 32.9923C47.1552 32.814 47.0551 32.5722 47.0551 32.3201C47.0551 32.068 47.1552 31.8262 47.3335 31.648C47.5118 31.4697 47.7536 31.3695 48.0057 31.3695C49.8965 31.3695 51.7099 30.6184 53.0469 29.2814C54.3839 27.9444 55.135 26.131 55.135 24.2402C55.135 22.3494 54.3839 20.536 53.0469 19.199C51.7099 17.862 49.8965 17.1109 48.0057 17.1109H47.9106C47.714 17.1109 47.5222 17.0499 47.3616 16.9364C47.2011 16.8228 47.0797 16.6623 47.0142 16.4768C46.3721 14.6629 45.1675 13.1013 43.576 12.0197C41.9845 10.9381 40.0892 10.3928 38.1662 10.4635C37.9633 10.4765 37.7615 10.4245 37.5901 10.3152C37.4186 10.2058 37.2865 10.0446 37.2128 9.8551C36.3199 7.51377 34.7363 5.49926 32.672 4.07885C30.6076 2.65843 28.1602 1.89925 25.6544 1.90203C23.1486 1.90482 20.7029 2.66943 18.6417 4.09443C16.5806 5.51944 15.0014 7.53746 14.1138 9.88077C14.041 10.0776 13.9046 10.2444 13.7262 10.3548C13.5477 10.4652 13.3375 10.5128 13.129 10.4901C12.873 10.4661 12.616 10.455 12.359 10.4568C9.83556 10.4557 7.39691 11.3674 5.49303 13.0236C3.58915 14.6797 2.34854 16.9686 2.00014 19.4679C1.65174 21.9671 2.21907 24.508 3.59742 26.6218C4.97577 28.7355 7.07213 30.2793 9.49964 30.9684C9.62297 30.9994 9.73883 31.0548 9.84037 31.1313C9.9419 31.2079 10.027 31.304 10.0908 31.414C10.1545 31.5241 10.1955 31.6458 10.2113 31.7719C10.2271 31.8981 10.2175 32.0262 10.183 32.1485C10.1484 32.2709 10.0897 32.3851 10.0102 32.4844C9.93078 32.5837 9.83221 32.666 9.72036 32.7265C9.60852 32.787 9.48567 32.8244 9.3591 32.8366C9.23253 32.8487 9.1048 32.8354 8.98348 32.7973C6.09449 31.9777 3.60287 30.134 1.97443 27.6109C0.34598 25.0878 -0.307817 22.0579 0.135257 19.0878C0.578332 16.1176 2.08795 13.4105 4.38189 11.4725C6.67583 9.53453 9.59706 8.4983 12.5995 8.55756C13.7087 6.01422 15.5359 3.84982 17.8572 2.32975C20.1785 0.809675 22.8929 0 25.6676 0C28.4423 0 31.1566 0.809675 33.4779 2.32975C35.7992 3.84982 37.6264 6.01422 38.7356 8.55756C40.8425 8.60501 42.8909 9.25953 44.6349 10.4425C46.3789 11.6256 47.7444 13.2868 48.5675 15.2268C50.9105 15.3712 53.1051 16.4224 54.6864 18.1574C56.2676 19.8924 57.111 22.1749 57.038 24.5212C56.9649 26.8675 55.9811 29.0932 54.295 30.7265C52.6089 32.3598 50.3531 33.2723 48.0057 33.2707Z" fill="white"/>
<path d="M39.9258 20.9132C39.7381 20.9131 39.5546 20.8575 39.3985 20.7532C39.2423 20.649 39.1205 20.5009 39.0484 20.3276C38.1847 18.2463 36.7235 16.4676 34.8494 15.2163C32.9752 13.9649 30.7723 13.2971 28.5189 13.2971C26.2654 13.2971 24.0625 13.9649 22.1884 15.2163C20.3143 16.4676 18.8531 18.2463 17.9893 20.3276C17.8884 20.5542 17.7029 20.7323 17.4725 20.824C17.242 20.9157 16.9849 20.9137 16.7559 20.8185C16.5269 20.7232 16.3442 20.5422 16.2468 20.3141C16.1494 20.086 16.145 19.8288 16.2345 19.5976C17.2427 17.1698 18.9476 15.0953 21.134 13.6358C23.3204 12.1764 25.8901 11.3975 28.5189 11.3975C31.1476 11.3975 33.7174 12.1764 35.9038 13.6358C38.0901 15.0953 39.795 17.1698 40.8032 19.5976C40.863 19.742 40.8863 19.8989 40.8711 20.0545C40.8558 20.2101 40.8024 20.3595 40.7157 20.4896C40.629 20.6196 40.5115 20.7263 40.3738 20.8002C40.236 20.8741 40.0821 20.9129 39.9258 20.9132Z" fill="#DCC152"/>
<path d="M35.7764 22.8144C35.5887 22.8146 35.405 22.7591 35.2487 22.6551C35.0924 22.5511 34.9704 22.4031 34.8981 22.2298C34.3748 20.9688 33.4895 19.8912 32.3541 19.1331C31.2186 18.375 29.884 17.9704 28.5188 17.9704C27.1535 17.9704 25.8189 18.375 24.6835 19.1331C23.548 19.8912 22.6628 20.9688 22.1394 22.2298C22.0914 22.345 22.0211 22.4496 21.9326 22.5377C21.8441 22.6257 21.7391 22.6955 21.6237 22.743C21.5082 22.7905 21.3845 22.8147 21.2597 22.8144C21.1349 22.8141 21.0113 22.7892 20.8961 22.7412C20.7809 22.6931 20.6762 22.6228 20.5882 22.5343C20.5001 22.4458 20.4304 22.3409 20.3829 22.2254C20.3354 22.1099 20.3111 21.9863 20.3114 21.8614C20.3117 21.7366 20.3366 21.613 20.3847 21.4978C21.0524 19.8905 22.1814 18.517 23.6291 17.5507C25.0767 16.5845 26.7782 16.0688 28.5188 16.0688C30.2593 16.0688 31.9608 16.5845 33.4085 17.5507C34.8562 18.517 35.9851 19.8905 36.6529 21.4978C36.7129 21.6422 36.7363 21.7992 36.7212 21.9548C36.7061 22.1104 36.6529 22.26 36.5662 22.3901C36.4796 22.5203 36.3622 22.6271 36.2244 22.7011C36.0867 22.7751 35.9328 22.814 35.7764 22.8144Z" fill="#DCC152"/>
<path d="M31.6263 24.7155C31.4394 24.7157 31.2565 24.6609 31.1006 24.5577C30.9448 24.4546 30.8227 24.3078 30.7498 24.1357C30.5679 23.6936 30.2587 23.3155 29.8615 23.0494C29.4642 22.7833 28.9969 22.6413 28.5188 22.6413C28.0407 22.6413 27.5734 22.7833 27.1762 23.0494C26.779 23.3155 26.4698 23.6936 26.2878 24.1357C26.2391 24.2507 26.1683 24.355 26.0793 24.4427C25.9903 24.5303 25.8849 24.5996 25.7691 24.6465C25.6534 24.6934 25.5295 24.717 25.4046 24.7161C25.2797 24.7151 25.1562 24.6896 25.0411 24.6409C24.9261 24.5922 24.8218 24.5213 24.7342 24.4323C24.6465 24.3433 24.5772 24.238 24.5303 24.1222C24.4834 24.0064 24.4598 23.8826 24.4607 23.7576C24.4617 23.6327 24.4872 23.5092 24.5359 23.3942C24.8635 22.6078 25.4165 21.936 26.1253 21.4634C26.8341 20.9909 27.6669 20.7387 28.5188 20.7387C29.3707 20.7387 30.2036 20.9909 30.9123 21.4634C31.6211 21.936 32.1742 22.6078 32.5018 23.3942C32.563 23.5387 32.5874 23.6961 32.573 23.8523C32.5586 24.0085 32.5057 24.1588 32.4191 24.2896C32.3325 24.4204 32.2149 24.5278 32.0767 24.6021C31.9385 24.6764 31.7832 24.7154 31.6263 24.7155Z" fill="#DCC152"/>
<path d="M28.5188 26.6166C29.0438 26.6166 29.4694 26.1911 29.4694 25.6661C29.4694 25.1411 29.0438 24.7155 28.5188 24.7155C27.9938 24.7155 27.5682 25.1411 27.5682 25.6661C27.5682 26.1911 27.9938 26.6166 28.5188 26.6166Z" fill="#DCC152"/>
</svg>
