<svg width="57" height="58" viewBox="0 0 57 58" fill="none" xmlns="http://www.w3.org/2000/svg">
<path d="M24.6718 3.74763e-05C18.4363 0.0118121 12.4356 2.3798 7.87247 6.62941C3.3093 10.879 0.52082 16.6962 0.0659102 22.9151C-0.388999 29.134 1.52327 35.2951 5.41947 40.1635C9.31566 45.0319 14.9079 48.2479 21.0753 49.1669C20.9891 50.1975 20.9216 51.2807 20.8728 52.4165C20.8325 53.432 21.141 54.4307 21.7471 55.2464C22.3532 56.0622 23.2204 56.6459 24.2043 56.9004C25.1882 57.155 26.2296 57.065 27.1552 56.6455C28.0809 56.226 28.8351 55.5022 29.2923 54.5945L31.6177 49.9636C31.6969 49.8047 31.819 49.6711 31.9703 49.578C32.1215 49.4849 32.2958 49.4361 32.4733 49.4369H45.3897C45.5673 49.4361 45.7415 49.4849 45.8928 49.578C46.044 49.6711 46.1661 49.8047 46.2453 49.9636L48.5708 54.5955C49.0262 55.5067 49.7804 56.234 50.7076 56.656C51.6347 57.0779 52.6786 57.169 53.6648 56.9139C54.651 56.6589 55.5198 56.0731 56.1261 55.2546C56.7324 54.436 57.0394 53.4342 56.9959 52.4165C56.6157 43.1252 54.7941 37.458 53.3367 34.3406C52.8931 33.405 52.2418 32.5829 51.4326 31.937C50.6234 31.291 49.6774 30.8381 48.6668 30.6129C49.5687 26.9736 49.6295 23.1765 48.8445 19.5102C48.0595 15.8439 46.4494 12.4046 44.1364 9.45363C41.8233 6.50266 38.8683 4.11758 35.4956 2.47952C32.1229 0.841465 28.4213 -0.00649656 24.6718 3.74763e-05ZM38.5465 30.4227C38.7598 28.8466 38.8823 27.2594 38.9134 25.6692H47.4556C47.39 27.2742 47.1542 28.8676 46.752 30.4227H38.5465ZM14.5629 37.7556C17.2764 38.4351 20.0531 38.8308 22.8484 38.9364C22.1436 41.4671 21.6382 44.0492 21.3367 46.659C18.631 45.2215 16.2048 42.0328 14.5629 37.7556ZM38.9153 23.7678C38.8552 20.6659 38.4405 17.5811 37.6794 14.5735C43.1508 16.6375 46.8775 19.9649 47.4147 23.7678H38.9153ZM36.9968 23.7678H25.6225V12.3726C28.9625 12.4301 32.2806 12.9236 35.4928 13.8405C36.4315 17.0684 36.9373 20.4067 36.9968 23.7678ZM25.6225 10.4721V1.97751C29.2828 2.51181 32.6578 6.10169 34.7836 11.7109C31.788 10.9456 28.7138 10.5299 25.6225 10.4721ZM23.7211 1.97751V10.4721C20.6296 10.529 17.5552 10.9437 14.5591 11.708C16.6859 6.10169 20.0609 2.51181 23.7211 1.97751ZM23.7211 12.3726V23.7678H12.3468C12.4059 20.4066 12.9117 17.0683 13.8508 13.8405C17.063 12.9235 20.3811 12.43 23.7211 12.3726ZM10.4283 23.7678H1.92894C2.46609 19.9649 6.19192 16.6375 11.6623 14.5735C10.9019 17.5812 10.4879 20.666 10.4283 23.7678ZM10.4283 25.6692C10.4873 28.7604 10.8962 31.8349 11.6471 34.834C6.19858 32.7596 2.47275 29.4331 1.92989 25.6692H10.4283ZM12.3468 25.6692H23.7211V36.2791C23.626 36.5253 23.531 36.783 23.4435 37.0501C20.1899 36.9703 16.9601 36.4718 13.8337 35.567C12.9073 32.347 12.4073 29.0193 12.3468 25.6692ZM25.6225 25.6692H37.012C36.9788 27.26 36.8499 28.8474 36.626 30.4227H30.6955C29.7379 30.425 28.7915 30.6284 27.9176 31.0198C27.0437 31.4113 26.2618 31.982 25.6225 32.6949V25.6692ZM46.483 18.0169C43.8434 15.3892 40.5971 13.4522 37.031 12.3773C35.9757 8.80321 34.0413 5.5506 31.4047 2.91681C34.9543 4.02211 38.1816 5.97427 40.8085 8.60494C43.4354 11.2356 45.3829 14.4658 46.483 18.0169ZM17.9351 2.91777C15.2996 5.55138 13.3665 8.80372 12.3126 12.3773C8.74826 13.453 5.50367 15.3899 2.86539 18.0169C3.96434 14.4667 5.91041 11.237 8.53578 8.60653C11.1611 5.97603 14.387 4.02365 17.9351 2.91777ZM2.90057 31.5322C5.53003 34.1365 8.76367 36.049 12.3126 37.0986C13.3668 40.6516 15.2889 43.8862 17.9056 46.5107C14.3753 45.4219 11.1636 43.4888 8.549 40.8788C5.93434 38.2688 3.99554 35.0606 2.90057 31.5322ZM51.6083 35.1449C52.9925 38.1045 54.719 43.5178 55.0907 52.4935C55.1136 53.0749 54.9369 53.6466 54.5898 54.1136C54.2427 54.5806 53.7463 54.9147 53.183 55.0605C52.6197 55.2062 52.0235 55.1548 51.4935 54.9147C50.9635 54.6746 50.5316 54.2604 50.2697 53.7408L47.9442 49.1099C47.7076 48.6354 47.3429 48.2365 46.8915 47.9583C46.4401 47.6801 45.9199 47.5337 45.3897 47.5355H32.4752C31.9446 47.5334 31.4239 47.6798 30.9721 47.9582C30.5203 48.2366 30.1555 48.6359 29.9188 49.1108L27.5933 53.7408C27.332 54.2614 26.9002 54.6767 26.3699 54.9176C25.8395 55.1585 25.2427 55.2104 24.6787 55.0647C24.1147 54.9189 23.6177 54.5844 23.2705 54.1167C22.9233 53.649 22.7468 53.0764 22.7704 52.4944C23.1421 43.5188 24.8686 38.1054 26.2528 35.1449C26.65 34.3021 27.2784 33.5894 28.065 33.09C28.8515 32.5906 29.7638 32.325 30.6955 32.3242H47.1694C48.1009 32.3254 49.0129 32.5912 49.7991 33.0908C50.5854 33.5904 51.2134 34.3031 51.6102 35.1459L51.6083 35.1449Z" fill="white"/>
<path d="M33.2282 38.9791H31.3268V37.0777C31.3268 36.8256 31.2266 36.5838 31.0483 36.4055C30.87 36.2272 30.6282 36.127 30.3761 36.127C30.1239 36.127 29.8821 36.2272 29.7038 36.4055C29.5255 36.5838 29.4254 36.8256 29.4254 37.0777V38.9791H27.524C27.2718 38.9791 27.03 39.0793 26.8517 39.2576C26.6734 39.4359 26.5732 39.6777 26.5732 39.9299C26.5732 40.182 26.6734 40.4238 26.8517 40.6021C27.03 40.7804 27.2718 40.8806 27.524 40.8806H29.4254V42.782C29.4254 43.0341 29.5255 43.2759 29.7038 43.4542C29.8821 43.6325 30.1239 43.7327 30.3761 43.7327C30.6282 43.7327 30.87 43.6325 31.0483 43.4542C31.2266 43.2759 31.3268 43.0341 31.3268 42.782V40.8806H33.2282C33.4804 40.8806 33.7222 40.7804 33.9005 40.6021C34.0788 40.4238 34.1789 40.182 34.1789 39.9299C34.1789 39.6777 34.0788 39.4359 33.9005 39.2576C33.7222 39.0793 33.4804 38.9791 33.2282 38.9791ZM47.4889 40.8806C47.2367 40.8806 46.9949 40.9807 46.8166 41.159C46.6383 41.3373 46.5381 41.5791 46.5381 41.8313V42.782C46.5381 43.0341 46.6383 43.2759 46.8166 43.4542C46.9949 43.6325 47.2367 43.7327 47.4889 43.7327C47.741 43.7327 47.9828 43.6325 48.1611 43.4542C48.3394 43.2759 48.4396 43.0341 48.4396 42.782V41.8313C48.4396 41.5791 48.3394 41.3373 48.1611 41.159C47.9828 40.9807 47.741 40.8806 47.4889 40.8806ZM46.5381 37.0777V38.0284C46.5381 38.2806 46.6383 38.5224 46.8166 38.7007C46.9949 38.879 47.2367 38.9791 47.4889 38.9791C47.741 38.9791 47.9828 38.879 48.1611 38.7007C48.3394 38.5224 48.4396 38.2806 48.4396 38.0284V37.0777C48.4396 36.8256 48.3394 36.5838 48.1611 36.4055C47.9828 36.2272 47.741 36.127 47.4889 36.127C47.2367 36.127 46.9949 36.2272 46.8166 36.4055C46.6383 36.5838 46.5381 36.8256 46.5381 37.0777ZM49.3903 40.8806H50.341C50.5931 40.8806 50.8349 40.7804 51.0132 40.6021C51.1915 40.4238 51.2917 40.182 51.2917 39.9299C51.2917 39.6777 51.1915 39.4359 51.0132 39.2576C50.8349 39.0793 50.5931 38.9791 50.341 38.9791H49.3903C49.1381 38.9791 48.8963 39.0793 48.718 39.2576C48.5397 39.4359 48.4396 39.6777 48.4396 39.9299C48.4396 40.182 48.5397 40.4238 48.718 40.6021C48.8963 40.7804 49.1381 40.8806 49.3903 40.8806ZM45.5874 38.9791H44.6367C44.3846 38.9791 44.1428 39.0793 43.9645 39.2576C43.7862 39.4359 43.686 39.6777 43.686 39.9299C43.686 40.182 43.7862 40.4238 43.9645 40.6021C44.1428 40.7804 44.3846 40.8806 44.6367 40.8806H45.5874C45.8396 40.8806 46.0814 40.7804 46.2597 40.6021C46.438 40.4238 46.5381 40.182 46.5381 39.9299C46.5381 39.6777 46.438 39.4359 46.2597 39.2576C46.0814 39.0793 45.8396 38.9791 45.5874 38.9791ZM37.031 43.7327H36.0803C35.8282 43.7327 35.5864 43.8329 35.4081 44.0111C35.2298 44.1894 35.1296 44.4313 35.1296 44.6834C35.1296 44.9355 35.2298 45.1774 35.4081 45.3557C35.5864 45.5339 35.8282 45.6341 36.0803 45.6341H37.031C37.2832 45.6341 37.525 45.5339 37.7033 45.3557C37.8816 45.1774 37.9818 44.9355 37.9818 44.6834C37.9818 44.4313 37.8816 44.1894 37.7033 44.0111C37.525 43.8329 37.2832 43.7327 37.031 43.7327ZM41.7846 43.7327H40.8339C40.5817 43.7327 40.3399 43.8329 40.1616 44.0111C39.9833 44.1894 39.8832 44.4313 39.8832 44.6834C39.8832 44.9355 39.9833 45.1774 40.1616 45.3557C40.3399 45.5339 40.5817 45.6341 40.8339 45.6341H41.7846C42.0367 45.6341 42.2786 45.5339 42.4569 45.3557C42.6351 45.1774 42.7353 44.9355 42.7353 44.6834C42.7353 44.4313 42.6351 44.1894 42.4569 44.0111C42.2786 43.8329 42.0367 43.7327 41.7846 43.7327ZM40.8339 35.1763C40.8339 34.9242 40.7337 34.6823 40.5554 34.504C40.3771 34.3258 40.1353 34.2256 39.8832 34.2256H37.9818C37.7296 34.2256 37.4878 34.3258 37.3095 34.504C37.1312 34.6823 37.031 34.9242 37.031 35.1763C37.031 35.4284 37.1312 35.6703 37.3095 35.8486C37.4878 36.0268 37.7296 36.127 37.9818 36.127H39.8832C40.1353 36.127 40.3771 36.0268 40.5554 35.8486C40.7337 35.6703 40.8339 35.4284 40.8339 35.1763Z" fill="#DCC152"/>
</svg>
