<svg width="59" height="58" viewBox="0 0 59 58" fill="none" xmlns="http://www.w3.org/2000/svg">
<path d="M58.5 45.677V37.5811C58.5 37.3978 58.4777 37.2133 58.4329 37.0357L56.6683 29.9757C56.5923 29.6722 56.4537 29.388 56.2614 29.1411L50.4492 21.6687C49.8157 20.8557 48.7496 20.4807 47.757 20.6341C43.6803 14.9445 37.0177 11.2258 29.5 11.2258C21.9833 11.2258 15.323 14.9426 11.2458 20.6314C10.2531 20.4788 9.18515 20.8557 8.55077 21.6686L2.74048 29.1394C2.54672 29.3869 2.40741 29.6725 2.33168 29.9776L0.567121 37.0358C0.522463 37.2141 0.499919 37.3972 0.5 37.5811V45.677C0.5 45.8602 0.522335 46.0447 0.567121 46.2224L2.10833 52.3871H0.5V58H15.4677V52.3871H13.5968V49.5163C17.7973 53.7377 23.4819 56.129 29.5 56.129C35.5245 56.129 41.2027 53.7419 45.4032 49.519V52.3871H43.5323V58H58.5V52.3871H56.8917L58.4329 46.2224C58.4777 46.0446 58.5 45.8602 58.5 45.677ZM29.5 13.0968C40.8482 13.0968 50.0806 22.3292 50.0806 33.6774C50.0806 35.7786 49.7646 37.8272 49.1507 39.7955L47.6935 34.9376C47.4642 34.172 46.9608 33.5605 46.3137 33.1768C46.0458 24.1253 38.6163 16.8387 29.5 16.8387C20.3837 16.8387 12.9541 24.1253 12.6864 33.1768C12.0392 33.5605 11.5358 34.172 11.3066 34.9376L9.84923 39.7955C9.23543 37.8263 8.91935 35.7796 8.91935 33.6774C8.91935 22.3292 18.1518 13.0968 29.5 13.0968ZM51.8758 38.1684C51.8956 38.2464 51.8899 38.3287 51.8598 38.4032L50.478 41.8565C50.4538 41.9173 50.4063 41.9556 50.3576 41.9913C50.9636 40.4746 51.4007 38.9093 51.6597 37.306L51.8758 38.1684ZM41.8194 37.1105L42.896 40.3418C40.9455 44.2533 37.3813 47.0784 33.2419 48.1559V41.1613C33.2419 37.5514 36.1795 34.6129 39.7903 34.6129H41.9102C41.7462 34.9954 41.6615 35.4072 41.6613 35.8234V36.1357C41.6613 36.4669 41.7147 36.7954 41.8194 37.1105ZM17.0899 34.6129H19.2097C22.8205 34.6129 25.7581 37.5514 25.7581 41.1613V48.1683C21.6375 47.1135 18.1189 44.3464 16.1337 40.4204L16.0656 40.4551L17.1806 37.1105C17.2852 36.7962 17.3386 36.467 17.3387 36.1357V35.8234C17.3385 35.4072 17.2539 34.9954 17.0899 34.6129ZM36.8839 33.2695C36.6769 31.7307 36.1242 30.2748 35.2514 29H43.7091C44.1009 30.189 44.3393 31.4434 44.4212 32.7419H39.7903C38.7681 32.7419 37.791 32.9346 36.8839 33.2695ZM16.0615 27.129C18.4966 22.1534 23.5971 18.7097 29.5 18.7097C35.4029 18.7097 40.5034 22.1534 42.9385 27.129H16.0615ZM15.2909 29H23.7486C22.8758 30.2748 22.3231 31.7307 22.1162 33.2695C21.2089 32.9346 20.2318 32.7419 19.2097 32.7419H14.5797C14.6607 31.4434 14.899 30.189 15.2909 29ZM23.9086 34.1791C24.0114 32.2313 24.7965 30.4123 26.1563 29H32.8437C34.2035 30.4114 34.9887 32.2303 35.0914 34.1791C32.8492 35.6922 31.371 38.2574 31.371 41.1613V48.5191C30.7544 48.5977 30.1303 48.6451 29.5 48.6451C28.8678 48.6451 28.2448 48.6004 27.629 48.5235V41.1613C27.629 38.2575 26.151 35.6922 23.9086 34.1791ZM7.33932 37.305C7.59927 38.9093 8.03638 40.4746 8.64257 41.9912C8.59369 41.9564 8.54528 41.9181 8.52096 41.8573L7.13925 38.4045C7.10919 38.3294 7.10363 38.2468 7.12334 38.1683L7.33932 37.305ZM13.5968 56.129H2.37097V54.2581H13.5968V56.129ZM4.03823 52.3871L2.37097 45.677L2.38243 37.4888L4.14558 30.4343C4.15879 30.3809 4.18206 30.3328 4.21586 30.2908L9.50041 23.4957C8.43933 25.5705 7.68837 27.8279 7.31699 30.2113C7.18228 30.4192 7.07622 30.6435 7.01553 30.887L5.30839 37.7158C5.19258 38.175 5.22571 38.6592 5.40299 39.0984L6.78423 42.553C7.1279 43.4118 7.94914 43.9677 8.8755 43.9677C9.87717 43.9677 10.7446 43.3232 11.0324 42.3626L13.0989 35.4753C13.2532 34.9591 13.7192 34.6129 14.2582 34.6129C14.925 34.6129 15.4677 35.1555 15.4677 35.8234V36.1357C15.468 36.2658 15.4471 36.3951 15.4061 36.5186L11.7258 47.558V52.3871H4.03823ZM29.5 54.2581C23.4615 54.2581 17.7877 51.6329 13.8663 47.0519L15.3079 42.728C18.3865 47.5676 23.6784 50.5161 29.5 50.5161C35.2691 50.5161 40.6258 47.5179 43.6921 42.7289L45.1328 47.051C41.2106 51.634 35.5451 54.2581 29.5 54.2581ZM56.629 56.129H45.4032V54.2581H56.629V56.129ZM47.2742 52.3871V47.558L43.5939 36.5186C43.5529 36.3951 43.532 36.2658 43.5323 36.1357V35.8234C43.5323 35.1556 44.0748 34.6129 44.7418 34.6129C45.2809 34.6129 45.7467 34.959 45.9011 35.4753L47.9676 42.3626C48.2553 43.3232 49.1228 43.9677 50.1245 43.9677C51.0509 43.9677 51.8712 43.4118 52.2157 42.5513L53.5978 39.0967C53.7744 38.6576 53.8072 38.1737 53.6914 37.7148L51.9845 30.8842C51.9237 30.6416 51.8177 30.4183 51.683 30.2105C51.3126 27.8279 50.5607 25.5705 49.5005 23.4967L54.785 30.2918C54.817 30.332 54.8403 30.3809 54.8535 30.4301L56.629 37.5811L56.6176 45.7692L54.9632 52.3871H47.2742Z" fill="white"/>
<path d="M32.3065 33.6774C32.3065 32.1303 31.0471 30.871 29.5001 30.871C27.953 30.871 26.6936 32.1303 26.6936 33.6774C26.6936 35.2245 27.953 36.4839 29.5001 36.4839C31.0471 36.4839 32.3065 35.2245 32.3065 33.6774ZM28.5646 33.6774C28.5646 33.1613 28.9848 32.7419 29.5001 32.7419C30.0153 32.7419 30.4355 33.1613 30.4355 33.6774C30.4355 34.1936 30.0153 34.6129 29.5001 34.6129C28.9848 34.6129 28.5646 34.1936 28.5646 33.6774ZM29.5001 1.87095C31.7218 1.87095 33.8116 2.74563 35.3842 4.33303L36.7136 3.01797C34.7872 1.07205 32.2252 -1.52588e-05 29.5001 -1.52588e-05C26.7749 -1.52588e-05 24.2128 1.07205 22.2875 3.01797L23.6168 4.33303C25.1883 2.74563 27.2783 1.87095 29.5001 1.87095Z" fill="#DCC152"/>
<path d="M34.0944 5.66446C32.8668 4.42389 31.2354 3.74192 29.5 3.74192C27.7647 3.74192 26.1331 4.42389 24.9056 5.66446L26.235 6.97951C27.1079 6.09852 28.2681 5.61289 29.5 5.61289C30.7319 5.61289 31.8922 6.0984 32.7651 6.97963L34.0944 5.66446ZM27.5253 8.30977L28.8555 9.6253C29.2008 9.27624 29.7992 9.27624 30.1446 9.6253L31.4747 8.30977C30.4214 7.24449 28.5787 7.24449 27.5253 8.30977Z" fill="#DCC152"/>
</svg>
