<svg width="21" height="21" viewBox="0 0 21 21" fill="none" xmlns="http://www.w3.org/2000/svg">
<path d="M20.9368 6.17092C20.8858 5.05325 20.7083 4.28995 20.4487 3.62221C20.1851 2.92156 19.7718 2.28687 19.2376 1.7624C18.7131 1.22816 18.0784 0.814755 17.3778 0.551004C16.7098 0.29158 15.9468 0.114229 14.8291 0.0634512C13.7093 0.0121816 13.3515 0 10.5 0C7.64847 0 7.29069 0.0121816 6.17092 0.0631641C5.05325 0.114229 4.29015 0.291744 3.62221 0.551291C2.92155 0.814921 2.28683 1.22825 1.76236 1.76244C1.22813 2.28685 0.814718 2.92149 0.550963 3.62209C0.291539 4.29003 0.114188 5.05329 0.0634102 6.1708C0.0121816 7.29069 0 7.64831 0 10.4998C0 13.3515 0.0121816 13.7093 0.0634512 14.829C0.114393 15.9466 0.291908 16.7098 0.551455 17.3778C0.815082 18.0784 1.2284 18.7131 1.76256 19.2375C2.287 19.7717 2.92169 20.185 3.62234 20.4485C4.29015 20.7083 5.05341 20.8856 6.17109 20.9367C7.29102 20.9878 7.64859 20.9999 10.5002 20.9999C13.3517 20.9999 13.7095 20.9878 14.8292 20.9367C15.9469 20.8856 16.71 20.7083 17.378 20.4485C18.0755 20.1788 18.7089 19.7664 19.2377 19.2376C19.7665 18.7088 20.179 18.0753 20.4487 17.3778C20.7084 16.7098 20.8858 15.9466 20.9369 14.8291C20.9878 13.7091 21 13.3515 21 10.5C21 7.64831 20.9878 7.29069 20.9368 6.17092ZM19.0468 14.7431C19.0002 15.7669 18.8291 16.3228 18.6854 16.6927C18.5107 17.1456 18.2431 17.5569 17.8999 17.9001C17.5567 18.2433 17.1454 18.5109 16.6926 18.6855C16.3226 18.8292 15.7667 19.0004 14.7429 19.047C13.636 19.0976 13.3038 19.1082 10.5 19.1082C7.69609 19.1082 7.36411 19.0976 6.25697 19.047C5.23339 19.0004 4.67746 18.8292 4.30734 18.6855C3.85129 18.5172 3.43877 18.2487 3.10008 17.9C2.75132 17.5613 2.48289 17.1488 2.31455 16.6927C2.17083 16.3228 1.99972 15.7669 1.95308 14.7431C1.90263 13.636 1.89189 13.3038 1.89189 10.5002C1.89189 7.69638 1.90263 7.36444 1.95308 6.25714C1.99984 5.23339 2.17083 4.67742 2.31455 4.3075C2.48295 3.85142 2.75136 3.43885 3.10008 3.10008C3.43877 2.75131 3.85137 2.48293 4.3075 2.31472C4.67746 2.17083 5.23339 1.99988 6.25718 1.95308C7.36427 1.90263 7.69642 1.89189 10.5 1.89189H10.4999C13.3035 1.89189 13.6356 1.90263 14.7429 1.95325C15.7667 1.99988 16.3225 2.171 16.6926 2.31472C17.1486 2.4831 17.5611 2.75145 17.8998 3.10008C18.2486 3.43877 18.517 3.85136 18.6852 4.3075C18.8291 4.67746 19.0002 5.23339 19.0468 6.25718C19.0973 7.36427 19.108 7.69642 19.108 10.5C19.108 13.3039 19.0975 13.6358 19.0468 14.7431Z" fill="url(#paint0_linear_103_636)"/>
<path d="M10.4998 5.10791C7.52205 5.10791 5.10803 7.52201 5.10803 10.4998C5.10803 13.4776 7.52205 15.8916 10.4998 15.8916C13.4778 15.8916 15.8918 13.4776 15.8918 10.4998C15.8918 7.52201 13.4778 5.10791 10.4998 5.10791ZM10.4998 13.9998C8.56696 13.9996 6.99988 12.4327 7.00004 10.4997C7.00004 8.5668 8.56696 6.99971 10.5 6.99971C12.433 6.99988 13.9999 8.5668 13.9999 10.4997C13.9999 12.4327 12.4328 13.9998 10.4998 13.9998Z" fill="url(#paint1_linear_103_636)"/>
<path d="M17.3648 4.89513C17.3648 5.59096 16.8007 6.15505 16.1049 6.15505C15.4089 6.15505 14.8448 5.59092 14.8448 4.89513C14.8448 4.1991 15.4089 3.63501 16.1049 3.63501C16.8007 3.63501 17.3649 4.19914 17.3649 4.89513H17.3648Z" fill="url(#paint2_linear_103_636)"/>
<defs>
<linearGradient id="paint0_linear_103_636" x1="1.76228" y1="19.2376" x2="19.2377" y2="1.76211" gradientUnits="userSpaceOnUse">
<stop stop-color="#FFD600"/>
<stop offset="0.5" stop-color="#FF0100"/>
<stop offset="1" stop-color="#D800B9"/>
</linearGradient>
<linearGradient id="paint1_linear_103_636" x1="6.6873" y1="14.3124" x2="14.3126" y2="6.68713" gradientUnits="userSpaceOnUse">
<stop stop-color="#FF6400"/>
<stop offset="0.5" stop-color="#FF0100"/>
<stop offset="1" stop-color="#FD0056"/>
</linearGradient>
<linearGradient id="paint2_linear_103_636" x1="15.2139" y1="5.78599" x2="16.9958" y2="4.00411" gradientUnits="userSpaceOnUse">
<stop stop-color="#F30072"/>
<stop offset="1" stop-color="#E50097"/>
</linearGradient>
</defs>
</svg>
