<svg width="38" height="25" viewBox="0 0 38 25" fill="none" xmlns="http://www.w3.org/2000/svg">
<path d="M37.9801 16.812C37.8879 14.6914 37.5191 12.3402 36.9659 10.1274C36.4127 8.00675 35.7212 6.02441 34.8914 4.50308C31.6643 -1.16733 28.1606 -0.291412 23.9655 0.81501C22.6285 1.13772 21.1994 1.50652 19.7242 1.64483H19.2632C17.7879 1.50652 16.3588 1.13772 15.0219 0.81501C10.8267 -0.245311 7.32302 -1.16733 4.09596 4.54918C3.26614 6.07051 2.52853 8.05285 2.02142 10.1735C1.46821 12.3863 1.0994 14.7375 1.0072 16.8581C0.914997 19.2093 1.1455 20.915 1.65261 22.1136C2.15972 23.2201 2.89734 23.9116 3.86546 24.1882C4.74137 24.4187 5.75559 24.3265 6.81591 23.8655C8.61385 23.1279 10.6884 21.5604 12.7168 19.6703C14.146 18.2873 16.8198 17.5957 19.4937 17.5957C22.1675 17.5957 24.8414 18.2873 26.2705 19.6703C28.2989 21.5604 30.3735 23.1279 32.1714 23.8655C33.2317 24.2804 34.246 24.4187 35.1219 24.1882C36.0439 23.9116 36.8276 23.2662 37.3347 22.0675C37.8418 20.915 38.0723 19.2093 37.9801 16.812ZM35.7673 21.4221C35.4907 22.0675 35.1219 22.4363 34.6609 22.5746C34.1538 22.7129 33.5083 22.6207 32.7707 22.3441C31.1572 21.6987 29.2671 20.2696 27.423 18.5178C25.6712 16.7659 22.5824 15.89 19.4937 15.89C16.4049 15.89 13.3161 16.7659 11.5182 18.4256C9.62807 20.1774 7.73793 21.6526 6.1705 22.2519C5.43289 22.5285 4.78747 22.6668 4.28036 22.4824C3.81935 22.3441 3.45055 21.9753 3.17394 21.3299C2.80513 20.454 2.62073 19.0249 2.71293 16.9042C2.80513 14.9219 3.12784 12.6629 3.68105 10.5423C4.18816 8.55996 4.83357 6.71593 5.61729 5.3329C8.15284 0.768908 11.1033 1.50652 14.607 2.42854C16.0361 2.79735 17.5113 3.16616 19.1249 3.30446H19.8164C21.476 3.16616 22.9512 2.79735 24.3804 2.42854C27.884 1.55262 30.8345 0.768908 33.37 5.3329C34.1538 6.71593 34.7992 8.51386 35.3063 10.5423C35.8134 12.6629 36.1822 14.8758 36.2744 16.9042C36.3666 19.0249 36.1822 20.454 35.7673 21.4221Z" fill="white"/>
<path d="M15.2523 7.82228C14.7913 7.40737 14.2381 7.08466 13.5927 7.03856C13.5466 6.43925 13.27 5.83994 12.8551 5.42503L12.809 5.37893C12.3019 4.87182 11.6565 4.59521 10.9189 4.59521C10.1812 4.59521 9.48973 4.91792 9.02872 5.37893C8.61381 5.79384 8.2911 6.39315 8.245 7.03856C7.59959 7.08466 7.04638 7.36127 6.58537 7.77618L6.53927 7.82228C6.03216 8.32939 5.75555 8.9748 5.75555 9.71242C5.75555 10.45 6.07826 11.1415 6.53927 11.6026C7.00028 12.0636 7.55349 12.3402 8.245 12.3863C8.2911 13.0317 8.56771 13.631 9.02872 14.0459C9.53583 14.553 10.1812 14.8296 10.9189 14.8296C11.6565 14.8296 12.348 14.5069 12.809 14.0459C13.2239 13.5849 13.5466 13.0317 13.5927 12.3863C14.2381 12.3402 14.8374 12.0636 15.2523 11.6026C15.7595 11.0954 16.0361 10.45 16.0361 9.71242C16.0361 8.9748 15.7134 8.28329 15.2523 7.82228ZM14.0998 10.4039C13.9154 10.5883 13.6849 10.6805 13.4083 10.6805H12.7629C12.3019 10.6805 11.887 11.0493 11.887 11.5565V12.1558C11.887 12.4324 11.7948 12.6629 11.6104 12.8473C11.426 13.0317 11.1955 13.1239 10.9189 13.1239C10.6423 13.1239 10.4117 13.0317 10.2273 12.8473C10.0429 12.6629 9.95074 12.4324 9.95074 12.1558V11.5104C9.95074 11.0493 9.58193 10.6344 9.07482 10.6344H8.42941C8.1528 10.6344 7.9223 10.5422 7.73789 10.3578C7.59959 10.2195 7.46129 9.98902 7.46129 9.71242C7.46129 9.43581 7.55349 9.20531 7.73789 9.0209L7.78399 8.9748C7.9684 8.8365 8.1989 8.7443 8.42941 8.7443H9.07482C9.53583 8.7443 9.95074 8.37549 9.95074 7.86838V7.22297C9.95074 6.94636 10.0429 6.71586 10.2273 6.53145C10.4117 6.34705 10.6423 6.25485 10.9189 6.25485C11.1955 6.25485 11.426 6.34705 11.6104 6.53145L11.6565 6.57755C11.7948 6.76196 11.887 6.99246 11.887 7.22297V7.86838C11.887 8.32939 12.2558 8.7443 12.7629 8.7443H13.4083C13.6849 8.7443 13.9154 8.8365 14.0998 9.0209C14.2842 9.20531 14.3764 9.43581 14.3764 9.71242C14.3764 9.98902 14.2842 10.2195 14.0998 10.4039Z" fill="#DCC152"/>
<path d="M27.5153 8.05275C28.4064 8.05275 29.1288 7.33034 29.1288 6.43922C29.1288 5.54809 28.4064 4.82568 27.5153 4.82568C26.6241 4.82568 25.9017 5.54809 25.9017 6.43922C25.9017 7.33034 26.6241 8.05275 27.5153 8.05275Z" fill="#DCC152"/>
<path d="M27.5153 14.5991C28.4064 14.5991 29.1288 13.8767 29.1288 12.9856C29.1288 12.0945 28.4064 11.3721 27.5153 11.3721C26.6241 11.3721 25.9017 12.0945 25.9017 12.9856C25.9017 13.8767 26.6241 14.5991 27.5153 14.5991Z" fill="#DCC152"/>
<path d="M24.2421 11.3259C25.1332 11.3259 25.8556 10.6035 25.8556 9.71241C25.8556 8.82128 25.1332 8.09888 24.2421 8.09888C23.3509 8.09888 22.6285 8.82128 22.6285 9.71241C22.6285 10.6035 23.3509 11.3259 24.2421 11.3259Z" fill="#DCC152"/>
<path d="M30.7884 11.3259C31.6795 11.3259 32.4019 10.6035 32.4019 9.71241C32.4019 8.82128 31.6795 8.09888 30.7884 8.09888C29.8973 8.09888 29.1749 8.82128 29.1749 9.71241C29.1749 10.6035 29.8973 11.3259 30.7884 11.3259Z" fill="#DCC152"/>
</svg>
