<svg width="8" height="12" viewBox="0 0 8 12" fill="none" xmlns="http://www.w3.org/2000/svg">
<path d="M7.5 5.99997C7.50008 6.07161 7.48502 6.14256 7.45569 6.20874C7.42636 6.27492 7.38333 6.33503 7.32908 6.38561L1.49578 11.8401C1.26784 12.0533 0.898743 12.0533 0.670952 11.8401C0.443162 11.627 0.443016 11.2819 0.670952 11.0689L6.09184 5.99997L0.670952 0.931072C0.443015 0.717937 0.443015 0.3728 0.670952 0.1598C0.898888 -0.0531998 1.26799 -0.0533362 1.49578 0.1598L7.32908 5.61434C7.38333 5.66492 7.42636 5.72503 7.45569 5.79121C7.48502 5.85739 7.50008 5.92834 7.5 5.99997Z" fill="white"/>
</svg>
