<svg width="36" height="20" viewBox="0 0 36 20" fill="none" xmlns="http://www.w3.org/2000/svg">
<path d="M30.0001 8.88889C29.6045 8.88889 29.2156 8.93111 28.8423 9.01111C28.3423 3.96 24.0689 0 18.8889 0C18.2756 0 17.7778 0.497778 17.7778 1.11111V18.8889C17.7778 19.5022 18.2756 20 18.8889 20H30.0001C33.0645 20 35.5556 17.5089 35.5556 14.4444C35.5556 11.3822 33.0645 8.88889 30.0001 8.88889Z" fill="#F57E20"/>
<path d="M14.4444 2.22217C13.8311 2.22217 13.3333 2.71995 13.3333 3.33328V18.8888C13.3333 19.5022 13.8311 19.9999 14.4444 19.9999C15.0578 19.9999 15.5555 19.5022 15.5555 18.8888V3.33328C15.5555 2.71995 15.0578 2.22217 14.4444 2.22217Z" fill="#F57E20"/>
<path d="M9.99997 6.66675C9.38663 6.66675 8.88885 7.16453 8.88885 7.77786V18.889C8.88885 19.5023 9.38663 20.0001 9.99997 20.0001C10.6133 20.0001 11.1111 19.5023 11.1111 18.889V7.77786C11.1111 7.16453 10.6133 6.66675 9.99997 6.66675Z" fill="#F57E20"/>
<path d="M5.55563 6.66675C4.9423 6.66675 4.44452 7.16453 4.44452 7.77786V18.889C4.44452 19.5023 4.9423 20.0001 5.55563 20.0001C6.16896 20.0001 6.66674 19.5023 6.66674 18.889V7.77786C6.66674 7.16453 6.16896 6.66675 5.55563 6.66675Z" fill="#F57E20"/>
<path d="M1.11111 10C0.497778 10 0 10.4978 0 11.1111V17.7778C0 18.3911 0.497778 18.8889 1.11111 18.8889C1.72444 18.8889 2.22222 18.3911 2.22222 17.7778V11.1111C2.22222 10.4978 1.72444 10 1.11111 10Z" fill="#F57E20"/>
</svg>
