<svg width="43" height="57" viewBox="0 0 43 57" fill="none" xmlns="http://www.w3.org/2000/svg">
<path d="M20.3951 2.32318C20.2105 1.647 19.6569 1.15392 18.9187 0.908821C16.5816 0.293191 7.47693 2.87682 5.81603 4.65739C5.26239 5.21102 5.07785 5.95497 5.26239 6.56483C5.50893 7.11846 16.7662 25.0813 16.7662 25.0813C18.4271 27.7875 19.7794 27.4184 20.2105 27.2338C20.643 27.1113 21.994 26.6802 21.8714 23.4853C21.6249 19.7338 20.5176 3.12336 20.3951 2.32318ZM15.5349 36.0329C16.4576 35.7878 17.0733 34.9256 17.1353 33.8803C17.1958 32.7731 16.6422 31.7883 15.7194 31.4193L13.1401 30.374C4.34544 26.6831 3.97491 26.5605 3.54382 26.5605C2.86764 26.4985 2.24624 26.8676 1.82236 27.5438C0.95731 28.9596 0.591104 33.5112 0.89964 36.526C1.02219 37.5092 1.20673 38.3714 1.45327 38.863C1.82236 39.5392 2.376 39.9703 3.05218 39.9703C3.48471 39.9703 3.72837 39.9083 11.9103 37.2641L15.5349 36.0329ZM20.1485 39.4167C19.1652 38.9841 18.058 39.2321 17.4423 40.0323L15.6589 42.1849C9.50692 49.5666 9.26038 49.8737 9.07584 50.3048C8.97561 50.559 8.93373 50.8325 8.95329 51.105C8.97163 51.5229 9.14724 51.9184 9.44493 52.2123C10.8607 53.9337 17.6889 56.5173 19.9034 56.1483C20.2488 56.1045 20.5753 55.9659 20.8466 55.7478C21.1179 55.5296 21.3234 55.2406 21.4403 54.9127C21.5643 54.4801 21.6249 54.1745 21.6249 45.5009V41.5692C21.7489 40.6465 21.1332 39.7858 20.1485 39.4167ZM41.5557 41.1468C41.1866 40.9002 40.9415 40.7777 32.761 38.0701C32.761 38.0701 29.1927 36.8403 29.1321 36.8403C28.267 36.4712 27.2867 36.7783 26.609 37.6404C25.9314 38.5026 25.8103 39.6084 26.3639 40.4692L27.7783 42.8682C32.6385 50.8657 33.0075 51.4193 33.3146 51.7264C33.8683 52.1589 34.5444 52.2195 35.2826 51.9109C37.3746 51.0459 41.8657 45.2673 42.1728 42.9922C42.2939 42.2468 42.1093 41.5692 41.5557 41.1396V41.1468ZM28.3925 32.0421C29.6901 31.7956 40.2639 29.2739 41.1261 28.6583C41.6797 28.2892 41.9911 27.613 41.9248 26.8129V26.7523C41.6797 24.4138 37.6803 18.3901 35.7123 17.4011C35.0361 17.094 34.2979 17.094 33.7443 17.4631C33.3752 17.7096 33.1286 18.0787 28.1459 24.9674L25.8694 28.096C25.2552 28.8342 25.2552 29.8809 25.8694 30.8036C26.485 31.7883 27.1007 32.2771 28.3925 32.0349V32.0421Z" fill="white"/>
</svg>
