<svg width="61" height="61" viewBox="0 0 61 61" fill="none" xmlns="http://www.w3.org/2000/svg">
<g clip-path="url(#clip0_37_1713)">
<path d="M7.30741 36.7453C7.30741 38.9977 7.80328 40.7197 8.4514 41.764C8.79679 42.3586 9.29415 42.8516 9.89296 43.1929C10.4918 43.5342 11.1707 43.7117 11.8608 43.7073C13.5274 43.7073 15.052 43.2977 17.9902 39.2516C20.344 36.0101 23.1176 31.4705 24.9858 28.6038L28.1462 23.7713C30.3416 20.4152 32.8785 16.6844 35.7961 14.1474C38.1726 12.0915 40.7383 10.9448 43.3206 10.9448C47.6558 10.9448 51.7853 13.445 54.9457 18.1341C58.4044 23.2696 60.0895 29.7382 60.0895 36.4135C60.0895 40.3819 59.3035 43.2977 57.9661 45.6014C56.6761 47.8292 54.1494 50.055 49.9129 50.055V43.7073C53.5404 43.7073 54.4395 40.3901 54.4395 36.5937C54.4395 31.1838 53.1721 25.1801 50.38 20.8903C48.3986 17.8475 45.8308 15.9882 43.0058 15.9882C39.9503 15.9882 37.4915 18.2816 34.7283 22.3707C33.2592 24.5433 31.751 27.1909 30.0576 30.1784L28.1935 33.4547C24.4488 40.0625 23.5003 41.5675 21.6279 44.0513C18.3523 48.4169 15.5499 50.055 11.8608 50.055C7.48436 50.055 4.71697 48.1691 3.01332 45.327C1.60391 43.0111 0.916687 39.9724 0.916687 36.5098L7.30741 36.7453Z" fill="white"/>
<path d="M5.95575 18.5826C8.88569 14.088 13.1139 10.9448 17.9636 10.9448C20.7721 10.9448 23.5642 11.7639 26.4797 14.1412C29.6689 16.7315 33.0639 20.9968 37.3086 28.0263L38.8291 30.5491C42.4997 36.6347 44.5902 39.7635 45.8103 41.2419C47.3823 43.138 48.4851 43.6991 49.9131 43.6991C53.5405 43.6991 54.4397 40.3819 54.4397 36.5855L60.0773 36.4094C60.0773 40.3778 59.2913 43.2936 57.9539 45.5973C56.6762 47.8292 54.1495 50.055 49.9131 50.055C47.2794 50.055 44.9462 49.4857 42.366 47.0634C40.3825 45.2041 38.0637 41.9012 36.2798 38.9321L30.9734 30.1109C28.3109 25.6838 25.8686 22.383 24.4551 20.8964C22.9325 19.2808 20.9799 17.3396 17.8607 17.3396C15.3361 17.3396 13.1921 19.1027 11.3979 21.7994L5.95575 18.5826Z" fill="white"/>
<path d="M17.8605 17.3396C15.3359 17.3396 13.192 19.1027 11.3978 21.7994C8.86085 25.6101 7.30741 31.2862 7.30741 36.7453C7.30741 38.9977 7.80328 40.7197 8.4514 41.764L3.00303 45.327C1.60391 43.0111 0.916687 39.9724 0.916687 36.5098C0.916687 30.2132 2.65325 23.6505 5.95561 18.5826C8.88554 14.088 13.1138 10.9448 17.9634 10.9448L17.8605 17.3396Z" fill="white"/>
</g>
<defs>
<clipPath id="clip0_37_1713">
<rect width="59.1667" height="59.1667" fill="white" transform="translate(0.916687 0.916626)"/>
</clipPath>
</defs>
</svg>
