<svg width="71" height="71" viewBox="0 0 71 71" fill="none" xmlns="http://www.w3.org/2000/svg">
<g opacity="0.2">
<path d="M16.1472 18.677C15.6645 18.677 15.2583 18.8467 15.0533 19.1784C14.842 19.5207 14.874 19.962 15.0995 20.4086L20.5227 29.7965C20.5318 29.8143 20.5318 29.8257 20.5227 29.8421L12.0004 44.8812C11.7782 45.3239 11.7891 45.7685 12.0004 46.1116C12.205 46.4417 12.5657 46.6583 13.049 46.6583H21.0696C22.2687 46.6583 22.8473 45.8491 23.2572 45.1095C23.2572 45.1095 31.5918 30.369 31.9163 29.7967C31.8835 29.7439 26.4022 20.1811 26.4022 20.1811C26.002 19.4701 25.3994 18.6768 24.1693 18.6768H16.1472V18.677Z" fill="white"/>
<path d="M49.8437 7.69358C48.6455 7.69358 48.1263 8.44826 47.6962 9.2213C47.6962 9.2213 30.4169 39.8645 29.8475 40.8706C29.8766 40.9251 41.2438 61.7789 41.2438 61.7789C41.642 62.4902 42.2563 63.3066 43.4851 63.3066H51.4963C51.9795 63.3066 52.3571 63.1247 52.5607 62.7941C52.7748 62.4521 52.7687 61.9997 52.5443 61.5545L41.2369 40.8953C41.2316 40.8876 41.2287 40.8784 41.2287 40.869C41.2287 40.8597 41.2316 40.8505 41.2369 40.8428L58.9952 9.44319C59.2185 8.99995 59.2232 8.54781 59.0122 8.20523C58.8075 7.87488 58.4288 7.69275 57.9455 7.69275H49.8428V7.6933H49.8437V7.69358Z" fill="white"/>
</g>
</svg>
