<svg width="61" height="45" viewBox="0 0 61 45" fill="none" xmlns="http://www.w3.org/2000/svg">
<path d="M15.9885 17.5341C15.9885 17.5341 16.8929 10.4277 15.9885 7.20335C15.0841 3.979 12.9605 2.3103 9.81522 2.11525C6.66992 1.92021 2.18331 4.83361 1.40009 12.7569C0.695381 18.7736 0.761409 24.8541 1.59661 30.8545C2.2644 34.7771 4.19241 40.3711 7.53423 42.5835C10.8761 44.7959 15.0059 44.875 18.0329 42.2735C21.0599 39.672 26.448 26.622 28.5716 23.7472C28.5716 23.7472 27.8246 33.3015 31.9535 36.6031C36.0823 39.9047 41.7796 39.0887 44.2599 34.6612C46.7403 30.2336 52.4385 18.6987 55.7021 13.9997C58.9657 9.30077 61.0902 6.23284 59.5962 3.75098C58.1023 1.26912 53.5012 1.53766 50.5133 4.29465C47.5254 7.05165 40.2894 14.6602 40.2894 14.6602C40.2894 14.6602 41.7834 3.09141 37.1041 1.37842C32.4247 -0.334572 27.1559 1.37842 22.1617 8.60163L15.9885 17.5341Z" fill="white"/>
</svg>
